<svg width="120" height="33" viewBox="0 0 120 33" fill="none" xmlns="http://www.w3.org/2000/svg">
<path d="M23.3352 0C25.014 0 26.3571 1.37167 26.3571 3.05768C26.3571 4.74369 25.014 6.11536 23.3352 6.11536C21.7124 6.11536 20.3694 4.74369 20.3694 3.05768C20.3974 1.37167 21.7404 0 23.3352 0Z" fill="#A5410F"/>
<path d="M25.9093 8.25861H20.817V25.2902H25.9093V8.25861Z" fill="#A5410F"/>
<path d="M40.5988 8.25862V10.0875C40.1231 9.17306 38.6961 7.94427 35.9541 7.94427C31.3934 7.94427 28.2037 11.8021 28.2037 16.2886C28.2037 21.0037 31.5333 24.5758 35.9541 24.5758C38.3883 24.5758 39.8153 23.5756 40.4309 22.6611V23.4327C40.4309 26.519 38.864 27.8049 36.2899 27.8049C34.667 27.8049 33.4359 26.919 32.9323 25.6331C32.8763 25.5188 32.8204 25.4045 32.7924 25.2902H28.1198C28.1198 25.2902 28.1198 25.776 28.2037 26.2618C28.7633 29.2623 31.7291 32.32 36.5417 32.32C42.7812 32.32 45.4672 28.0621 45.4672 23.1755V8.25862H40.5988ZM36.9054 20.0607C34.8629 20.0607 33.324 18.6033 33.324 16.2886C33.324 13.9453 35.0028 12.5165 36.9054 12.5165C38.808 12.5165 40.4589 13.9453 40.4589 16.2886C40.4589 18.6033 38.9759 20.0607 36.9054 20.0607Z" fill="#A5410F"/>
<path d="M50.7275 0C52.4063 0 53.7493 1.37167 53.7493 3.05768C53.7493 4.74369 52.4063 6.11536 50.7275 6.11536C49.1046 6.11536 47.7616 4.74369 47.7616 3.05768C47.7616 1.37167 49.1046 0 50.7275 0Z" fill="#A5410F"/>
<path d="M53.3015 8.25861H48.2092V25.2902H53.3015V8.25861Z" fill="#A5410F"/>
<path d="M17.6273 0.48584H12.5909V9.60173C12.1712 8.94447 10.9401 7.85857 8.08617 7.85857C3.35758 7.85857 0 11.6592 0 16.7173C0 21.9753 3.55344 25.6617 8.25405 25.6617C10.2686 25.6617 11.9474 24.8044 12.7308 23.6613V25.2902H15.1651H17.6273V0.48584ZM8.89758 21.0037C6.91102 21.0037 5.14829 19.5749 5.14829 16.7458C5.14829 13.9168 6.91102 12.5451 8.89758 12.5451C10.8842 12.5451 12.6469 13.9168 12.6469 16.7458C12.6469 19.5749 10.8842 21.0037 8.89758 21.0037Z" fill="#A5410F"/>
<path d="M108.925 15.4598L112.843 14.8312C113.738 14.6883 114.046 14.2596 114.046 13.6595C114.046 12.6594 113.206 11.8021 111.584 11.8021C109.793 11.8021 108.842 13.0308 108.73 14.3168L104.309 13.4023C104.505 10.9733 106.715 7.7442 111.612 7.7442C117.012 7.7442 118.998 10.8305 118.998 14.3168V22.6325C118.998 23.9756 119.166 25.0901 119.194 25.2616H114.605C114.577 25.1187 114.437 24.5186 114.437 23.347C113.57 24.7758 111.947 25.7474 109.737 25.7474C106.072 25.7474 103.973 23.2898 103.973 20.575C104.001 17.5745 106.183 15.8599 108.925 15.4598ZM114.074 18.6033V17.8603L110.912 18.3746C109.849 18.5461 109.037 19.0605 109.037 20.2607C109.037 21.1466 109.597 22.0039 111.024 22.0039C112.535 22.0039 114.074 21.2609 114.074 18.6033Z" fill="#506269"/>
<path d="M79.6866 0C81.3653 0 82.7084 1.37167 82.7084 3.05768C82.7084 4.74369 81.3653 6.11536 79.6866 6.11536C78.0637 6.11536 76.7207 4.74369 76.7207 3.05768C76.7207 1.37167 78.0637 0 79.6866 0Z" fill="#506269"/>
<path d="M82.2608 8.25861H77.1685V25.2902H82.2608V8.25861Z" fill="#506269"/>
<path d="M96.9501 8.25862V10.0875C96.4744 9.17306 95.0474 7.94427 92.3054 7.94427C87.7447 7.94427 84.555 11.8021 84.555 16.2886C84.555 21.0037 87.8846 24.5758 92.3054 24.5758C94.7397 24.5758 96.1666 23.5756 96.7822 22.6611V23.4327C96.7822 26.519 95.2153 27.8049 92.6412 27.8049C91.0183 27.8049 89.7872 26.919 89.2836 25.6331C89.2276 25.5188 89.1717 25.4045 89.1437 25.2902H84.4711C84.4711 25.2902 84.4711 25.776 84.555 26.2618C85.1146 29.2623 88.0805 32.32 92.893 32.32C99.1325 32.32 101.819 28.0621 101.819 23.1755V8.25862H96.9501ZM93.2567 20.0607C91.2142 20.0607 89.6753 18.6033 89.6753 16.2886C89.6753 13.9453 91.3541 12.5165 93.2567 12.5165C95.1594 12.5165 96.8102 13.9453 96.8102 16.2886C96.8102 18.6033 95.3272 20.0607 93.2567 20.0607Z" fill="#506269"/>
<path d="M73.9787 0.48584H68.9424V9.60173C68.5227 8.94447 67.2916 7.85857 64.4376 7.85857C59.709 7.85857 56.3514 11.6592 56.3514 16.7173C56.3514 21.9753 59.9049 25.6617 64.6055 25.6617C66.62 25.6617 68.2988 24.8044 69.0823 23.6613V25.2902H71.5165H73.9787V0.48584ZM65.249 21.0037C63.2625 21.0037 61.4997 19.5749 61.4997 16.7458C61.4997 13.9168 63.2625 12.5451 65.249 12.5451C67.2356 12.5451 68.9983 13.9168 68.9983 16.7458C68.9983 19.5749 67.2356 21.0037 65.249 21.0037Z" fill="#506269"/>
</svg>
