<svg width="27" height="22" viewBox="0 0 27 22" fill="none" xmlns="http://www.w3.org/2000/svg">
<path d="M0 6.53893V17.219C0 18.3607 0.467924 19.4557 1.30083 20.263C2.13375 21.0703 3.26341 21.5238 4.44133 21.5238H22.2066C23.3846 21.5238 24.5142 21.0703 25.3471 20.263C26.18 19.4557 26.648 18.3607 26.648 17.219V4.30476C26.648 3.16307 26.18 2.06813 25.3471 1.26084C24.5142 0.453536 23.3846 0 22.2066 0H4.44133C3.26341 0 2.13375 0.453536 1.30083 1.26084C0.467924 2.06813 0 3.16307 0 4.30476V6.53893ZM4.44133 2.15238H22.2066C22.7956 2.15238 23.3604 2.37915 23.7769 2.7828C24.1933 3.18645 24.4273 3.73391 24.4273 4.30476V5.89752L13.324 11.6917L2.22066 5.89752V4.30476C2.22066 3.73391 2.45463 3.18645 2.87108 2.7828C3.28754 2.37915 3.85237 2.15238 4.44133 2.15238ZM2.22066 8.34263L12.7977 13.8613C12.9594 13.9457 13.1403 13.9899 13.324 13.9899C13.5077 13.9899 13.6885 13.9457 13.8503 13.8613L24.4273 8.34263V17.219C24.4273 17.7899 24.1933 18.3374 23.7769 18.741C23.3604 19.1447 22.7956 19.3714 22.2066 19.3714H4.44133C3.85237 19.3714 3.28754 19.1447 2.87108 18.741C2.45463 18.3374 2.22066 17.7899 2.22066 17.219V8.34263Z" fill="#D5963D"/>
</svg>
