<svg width="497" height="437" viewBox="0 0 497 437" fill="none" xmlns="http://www.w3.org/2000/svg">
<path d="M260.867 196.84C260.567 196.84 260.266 196.724 260.04 196.493C259.814 196.261 259.701 195.972 259.682 195.644L258.328 2.61304C258.328 1.95686 258.836 1.39719 259.494 1.39719L384.315 0.470825C384.616 0.470825 384.917 0.58662 385.142 0.818211C385.368 1.0498 385.481 1.33929 385.5 1.66738L386.873 194.679C386.873 195.335 386.365 195.895 385.707 195.895L260.867 196.84C260.886 196.84 260.886 196.84 260.867 196.84ZM260.679 3.80959L262.034 194.409L384.503 193.482L383.149 2.88323L260.679 3.80959Z" fill="#C2AC96"/>
<path d="M259.682 29.8829C259.043 29.8829 258.516 29.3425 258.516 28.6863C258.516 28.0302 259.043 27.4705 259.682 27.4705L383.656 26.5441C384.296 26.5441 384.823 27.0845 384.823 27.7407C384.823 28.3969 384.296 28.9565 383.656 28.9565L259.682 29.8829C259.701 29.8829 259.682 29.8829 259.682 29.8829Z" fill="#C2AC96"/>
<path d="M321.566 195.875C320.926 195.875 320.4 195.335 320.4 194.679L319.215 28.2425C319.215 27.5863 319.723 27.0266 320.381 27.0266C321.02 27.0266 321.547 27.567 321.547 28.2232L322.732 194.66C322.751 195.316 322.224 195.875 321.566 195.875Z" fill="#C2AC96"/>
<path d="M407.695 126.707C407.056 126.707 406.529 126.167 406.529 125.51L406.416 109.743C406.416 109.087 406.943 108.527 407.582 108.527C408.222 108.527 408.749 109.067 408.749 109.724L408.862 125.491C408.88 126.167 408.354 126.707 407.695 126.707C407.714 126.707 407.714 126.707 407.695 126.707Z" fill="#C2AC96"/>
<path d="M447.628 144.829C446.989 144.829 446.462 144.288 446.462 143.632L446.349 127.865C446.349 127.208 446.876 126.649 447.515 126.649C448.155 126.649 448.681 127.189 448.681 127.845L448.794 143.613C448.813 144.288 448.286 144.829 447.628 144.829C447.647 144.829 447.628 144.829 447.628 144.829Z" fill="#C2AC96"/>
<path d="M393.757 128.135C393.118 128.135 392.591 127.595 392.591 126.939C392.591 126.283 393.118 125.723 393.757 125.723L471.29 125.144C471.93 125.144 472.457 125.684 472.457 126.34C472.457 126.997 471.93 127.556 471.29 127.556L393.757 128.135Z" fill="#C2AC96"/>
<path d="M414.899 145.08C414.26 145.08 413.733 144.539 413.733 143.883C413.733 143.227 414.26 142.667 414.899 142.667L470.388 142.243C471.027 142.243 471.554 142.783 471.554 143.439C471.554 144.095 471.027 144.655 470.388 144.655L414.899 145.08Z" fill="#C2AC96"/>
<path d="M83.7752 237.04C83.1357 237.04 82.609 236.5 82.609 235.844L82.4962 220.076C82.4962 219.42 83.0228 218.86 83.6624 218.86C84.3019 218.86 84.8285 219.401 84.8285 220.057L84.9414 235.824C84.9602 236.5 84.4335 237.04 83.7752 237.04Z" fill="#C2AC96"/>
<path d="M44.1057 255.76C43.4662 255.76 42.9395 255.22 42.9395 254.564L42.8267 238.796C42.8267 238.14 43.3345 237.581 43.9929 237.581C44.6324 237.581 45.1591 238.121 45.1591 238.777L45.2719 254.545C45.2907 255.22 44.7641 255.76 44.1057 255.76Z" fill="#C2AC96"/>
<path d="M20.2177 238.835C19.5782 238.835 19.0515 238.295 19.0515 237.639C19.0515 236.983 19.5594 236.423 20.2177 236.423L97.7507 235.844C98.3903 235.844 98.9169 236.384 98.9169 237.04C98.9169 237.697 98.4091 238.256 97.7507 238.256L20.2177 238.835Z" fill="#C2AC96"/>
<path d="M21.3652 255.934C20.7256 255.934 20.199 255.394 20.199 254.738C20.199 254.082 20.7068 253.522 21.3652 253.522L76.8535 253.097C77.493 253.097 78.0197 253.638 78.0197 254.294C78.0197 254.95 77.493 255.51 76.8535 255.51L21.3652 255.934Z" fill="#C2AC96"/>
<path d="M496.044 421.56C496.1 428.701 385.199 435.321 248.359 436.344C111.519 437.367 0.5429 432.407 0.486472 425.266C0.430043 418.125 111.331 411.505 248.171 410.483C385.011 409.46 495.987 414.42 496.044 421.56Z" fill="#C2AC96"/>
<path d="M306.781 375.088L307.12 422.969L326.494 422.834L337.272 382.036L341.259 366.924L306.781 375.088Z" fill="#731F07"/>
<g opacity="0.5">
<g opacity="0.5">
<g opacity="0.5">
<g opacity="0.5">
<g opacity="0.5">
<path opacity="0.5" d="M306.781 375.088L306.875 387.304C315.659 386.243 328.168 383.869 337.272 382.036L341.259 366.924L306.781 375.088Z" fill="#731F07"/>
</g>
</g>
</g>
</g>
</g>
<path d="M197.667 375.899L198.005 423.799L178.65 423.934L167.289 383.309L163.076 368.256L197.667 375.899Z" fill="#731F07"/>
<g opacity="0.5">
<g opacity="0.5">
<g opacity="0.5">
<g opacity="0.5">
<g opacity="0.5">
<path opacity="0.5" d="M197.667 375.899L197.761 388.115C188.977 387.169 176.431 384.988 167.289 383.309L163.076 368.256L197.667 375.899Z" fill="#731F07"/>
</g>
</g>
</g>
</g>
</g>
<path d="M122.805 106.887C124.649 125.356 140.242 192.498 148.085 225.596C148.875 228.896 149.571 231.849 150.173 234.397C151.659 240.592 152.543 244.297 152.543 244.297L315.434 239.569C315.434 239.569 315.867 237.427 316.638 233.625C322.262 205.602 345.454 87.4331 339.021 75.9694C338.57 75.1588 337.912 74.3676 337.046 73.5956C336.444 73.0359 335.73 72.4955 334.94 71.9552C334.15 71.4148 333.247 70.8937 332.269 70.3726C320.437 64.0811 295.816 58.9475 267.865 56.014C234.91 52.5402 197.348 52.1542 170.732 56.5351C169.98 56.6509 169.227 56.786 168.475 56.9211C166.538 57.2685 164.675 57.6158 162.888 57.9825C127.997 65.0267 121.301 74.85 121.188 88.6683V88.6876C121.169 94.1106 122.128 100.151 122.805 106.887Z" fill="#A5410F"/>
<path d="M314.174 203.769C314.513 203.769 314.814 203.518 314.87 203.17C314.927 202.881 319.874 173.72 323.842 144.096C326.175 126.688 327.698 112.503 328.394 101.985C329.579 83.9013 328.056 80.3117 326.814 79.173C319.61 72.6306 282.555 67.8637 261.112 65.6057C250.842 64.5249 240.384 64.2354 230.02 64.7565C205.248 65.9917 162.625 69.0988 155.44 75.9887C154.236 77.1466 152.807 80.7942 154.5 98.8389C155.478 109.357 157.415 123.465 160.218 140.815C164.995 170.323 170.77 199.33 170.826 199.619C170.902 200.005 171.278 200.256 171.654 200.179C172.03 200.102 172.275 199.716 172.2 199.33C172.143 199.04 166.387 170.072 161.61 140.583C153.258 88.9963 154.763 78.6519 156.4 77.0694C161.403 72.2639 188.244 68.3076 230.077 66.2233C240.365 65.7022 250.748 65.9917 260.943 67.0724C282.217 69.3111 318.952 74.0201 325.855 80.2924C327.548 81.817 329.335 92.1228 322.432 143.922C318.482 173.527 313.535 202.669 313.478 202.958C313.403 203.344 313.666 203.73 314.061 203.807C314.08 203.769 314.137 203.769 314.174 203.769Z" fill="#731F07"/>
<path d="M121.207 88.6684C121.32 93.7441 122.166 99.3216 122.787 105.478C124.63 123.947 140.223 191.089 148.067 224.187L174.682 223.994C174.682 223.994 144.549 114.356 142.631 87.3561C141.371 69.7359 153.992 61.553 162.908 57.9827C128.016 65.0269 121.32 74.8502 121.207 88.6684Z" fill="#731F07"/>
<path d="M316.582 235.748C316.582 235.748 343.968 232.814 346.282 242.965C348.088 250.897 346.244 321.996 345.36 352.894C345.116 360.999 351.248 367.793 359.148 368.198C360.897 368.294 362.721 368.352 364.621 368.41C373.706 368.68 383.995 368.468 391.049 366.77C406.397 363.084 406.736 340.697 411.927 303.526C417.119 266.356 421.614 200.179 387.795 187.712C386.628 187.287 385.462 186.901 384.296 186.535C351.737 176.692 320.908 196.86 320.908 196.86C313.553 218.185 316.582 235.748 316.582 235.748Z" fill="#731F07"/>
<path d="M364.602 368.41C373.687 368.68 383.976 368.468 391.03 366.77C406.378 363.084 406.717 340.697 411.908 303.526C417.1 266.356 421.595 200.179 387.776 187.712C386.609 187.287 385.443 186.901 384.277 186.534C378.54 187.982 373.292 191.938 370.509 200.546C362.947 223.936 375.794 304.839 364.602 368.41Z" fill="#A5410F"/>
<path d="M382.509 362.717C389.506 362.659 394.942 359.649 398.234 353.994C403.369 345.136 410.347 269.348 410.648 266.125C410.686 265.739 410.404 265.372 410.009 265.333C409.633 265.295 409.275 265.584 409.238 265.99C409.162 266.781 401.996 344.672 397.011 353.261C389.45 366.288 372.521 359.494 372.352 359.436C371.995 359.282 371.581 359.475 371.449 359.842C371.299 360.208 371.487 360.633 371.844 360.768C372.032 360.845 376.415 362.621 381.87 362.717C382.095 362.717 382.302 362.717 382.509 362.717Z" fill="#731F07"/>
<path d="M378.954 213.611C378.954 213.611 379.405 200.893 388.772 201.839C398.121 202.784 398.723 223.743 390.39 226.523C378.183 230.575 378.954 213.611 378.954 213.611Z" fill="#731F07"/>
<path d="M400.453 209.655C400.51 209.655 400.547 209.655 400.604 209.636C400.98 209.539 401.225 209.153 401.131 208.767C401.018 208.304 398.441 197.169 389.375 195.026C385.707 194.158 382.453 194.853 379.706 197.111C375.738 200.372 373.932 206.22 373.951 209.134C373.951 209.539 374.27 209.848 374.647 209.848C375.042 209.848 375.343 209.52 375.343 209.134C375.324 206.857 376.847 201.299 380.572 198.249C382.961 196.281 385.82 195.683 389.036 196.454C397.256 198.404 399.72 209.018 399.739 209.115C399.833 209.443 400.115 209.655 400.453 209.655Z" fill="#731F07"/>
<path d="M125.927 232.428C127.733 239.974 128.824 244.471 128.824 244.471L326.945 238.72C326.945 238.72 327.472 236.114 328.394 231.502C293.238 225.635 172.744 228.607 125.927 232.428Z" fill="#731F07"/>
<path d="M127.771 270.814C127.846 274.655 127.959 278.708 128.109 282.915C129.482 320.799 134.354 370.726 150.398 374.972C176.525 381.92 338.363 384.332 346.695 368.41C349.178 363.663 350.702 355.673 351.661 345.908C351.849 343.997 352.018 342.009 352.15 339.983C353.41 322.324 353.279 300.362 353.711 281.236C353.824 276.102 353.993 271.162 354.238 266.569C356.006 232.834 329.259 232.563 329.259 232.563C291.433 231.946 235.907 234.165 192.701 236.365C170.186 237.504 151.019 238.643 139.47 239.357C132.04 239.82 127.771 240.09 127.771 240.09C127.771 240.09 127.413 252.982 127.771 270.814Z" fill="#A5410F"/>
<path d="M255.055 347.123C258.309 347.104 261.676 347.046 265.156 346.95C317.371 345.464 347.335 333.189 347.636 333.054C348.068 332.861 348.294 332.359 348.106 331.896C347.918 331.452 347.429 331.221 346.977 331.414C346.676 331.53 316.976 343.707 265.099 345.174C213.166 346.641 184.576 339.269 184.293 339.211C183.823 339.095 183.372 339.365 183.24 339.848C183.127 340.311 183.391 340.793 183.861 340.928C184.124 340.986 209.254 347.471 255.055 347.123Z" fill="#731F07"/>
<path d="M127.771 270.815C127.846 274.655 127.959 278.708 128.109 282.915C129.482 320.8 134.354 370.727 150.399 374.972C176.525 381.92 338.363 384.333 346.695 368.411C349.178 363.663 350.702 355.673 351.661 345.908C351.849 343.997 352.018 342.009 352.15 339.983C344.513 345.29 321.528 352.354 305.709 354.129C239.763 361.559 188.338 352.489 188.338 352.489C196.745 315.762 194.018 257.247 192.683 236.327C170.167 237.466 151.001 238.604 139.451 239.318L127.771 270.815Z" fill="#731F07"/>
<path d="M321.754 240.958C319.835 242.753 317.691 244.451 315.302 246.053C315.227 246.111 315.152 246.15 315.076 246.208C313.402 247.327 311.634 248.369 309.772 249.373C309.095 249.739 308.418 250.087 307.741 250.415C302.305 253.117 296.154 255.356 289.552 256.977C288.95 257.131 288.348 257.266 287.727 257.401C285.978 257.807 284.191 258.154 282.385 258.463C281.783 258.578 281.163 258.675 280.561 258.771C273.582 259.852 266.266 260.258 258.892 259.852C258.027 259.794 257.162 259.756 256.296 259.679C253.983 259.505 251.669 259.235 249.375 258.868C249.318 258.868 249.262 258.849 249.205 258.849C248.509 258.733 247.813 258.636 247.117 258.501C243.374 257.845 239.669 256.938 236.02 255.799C232.841 254.815 229.7 253.638 226.634 252.248C226.107 252.017 225.599 251.766 225.073 251.534C224.433 251.225 223.775 250.917 223.154 250.589C223.098 250.569 223.041 250.531 222.966 250.492C219.279 239.781 215.48 201.684 214.464 190.279C214.257 188.001 214.107 185.743 213.975 183.466C213.956 183.08 213.937 182.675 213.918 182.289C213.881 181.69 213.862 181.111 213.843 180.513C213.674 176.364 213.636 172.195 213.674 167.969C213.674 167.293 213.693 166.598 213.712 165.923C213.712 165.595 213.712 165.248 213.73 164.919C213.73 164.881 213.73 164.823 213.73 164.784C213.749 164.302 213.749 163.819 213.768 163.318C213.881 158.956 214.069 154.536 214.313 150.04C214.332 149.615 214.351 149.21 214.389 148.785C214.408 148.573 214.408 148.361 214.426 148.148C214.577 145.524 214.746 142.86 214.934 140.178C214.953 139.773 214.991 139.348 215.028 138.923C215.047 138.769 215.047 138.615 215.066 138.46C215.517 132.014 216.025 125.375 216.514 118.466C216.778 114.684 217.248 111.171 217.868 107.948C217.944 107.543 218.019 107.157 218.113 106.771C219.392 100.807 221.273 95.8861 223.794 92.1035C224 91.7754 224.226 91.4473 224.452 91.1385C225.279 89.9999 226.164 88.9963 227.104 88.1086C228.026 87.2401 229.004 86.4681 230.057 85.812C232.013 84.5961 234.158 83.8048 236.509 83.4382C238.728 83.1101 240.741 82.6469 242.584 82.1258C242.923 82.0293 243.261 81.9328 243.581 81.8363C244.616 81.5275 245.594 81.1801 246.515 80.8328C246.986 80.6398 247.456 80.4661 247.889 80.2731C248.246 80.1187 248.603 79.9643 248.942 79.8099C249.092 79.7327 249.262 79.6748 249.412 79.5976C249.544 79.5397 249.694 79.4625 249.826 79.4046C250.07 79.2888 250.296 79.173 250.522 79.0572C254.303 77.1273 256.447 75.3904 256.447 75.3904L282.442 75.6606C282.649 75.9694 282.856 76.2588 283.044 76.5483C283.062 76.5676 283.081 76.5869 283.081 76.6062C284.097 77.9765 285.226 79.1344 286.429 80.1187C286.73 80.3696 287.05 80.6012 287.37 80.8328C287.953 81.2573 288.555 81.6433 289.176 82.01C289.608 82.2609 290.041 82.4925 290.455 82.7048C290.793 82.8785 291.132 83.0329 291.47 83.1873C291.564 83.2259 291.658 83.2838 291.753 83.3224C292.016 83.4382 292.26 83.5539 292.524 83.6504C292.655 83.7083 292.806 83.7662 292.938 83.8241C293.652 84.1136 294.367 84.3645 295.082 84.6154C295.101 84.6154 295.101 84.6154 295.119 84.6154C300.8 86.5453 306.593 87.5103 310.205 91.2543C310.581 91.6403 310.919 92.0649 311.258 92.5088C311.785 93.2421 312.255 94.072 312.631 94.9984C313.007 95.9247 313.308 96.9669 313.515 98.1248C313.647 98.781 313.703 99.4758 313.722 100.248C313.854 106.115 311.352 115.784 310.186 131.705C310.148 132.169 310.111 132.613 310.092 133.095C309.923 135.662 309.791 138.364 309.697 141.259C309.678 141.683 309.678 142.127 309.659 142.552C309.622 144.096 309.603 145.697 309.603 147.338C309.603 148.187 309.603 149.036 309.603 149.905C309.622 151.603 309.659 153.34 309.697 155.135C309.716 155.675 309.734 156.215 309.753 156.756C309.791 157.856 309.829 158.975 309.904 160.114C309.941 160.712 309.979 161.33 309.998 161.928C310.017 162.353 310.054 162.777 310.073 163.202C310.073 163.337 310.092 163.472 310.092 163.588C310.224 165.672 310.374 167.834 310.581 170.034C310.581 170.15 310.6 170.265 310.619 170.381C310.637 170.671 310.675 170.979 310.694 171.269C310.844 173.025 311.032 174.839 311.239 176.673C311.484 178.873 311.728 181.131 312.029 183.447C313.214 192.672 315.904 210.967 318.782 226.349C319.233 228.781 319.685 231.116 320.136 233.335C320.193 233.567 320.23 233.798 320.287 234.03C320.738 236.539 321.246 238.874 321.754 240.958Z" fill="white"/>
<path d="M327.509 139.058C321.208 139.058 315.152 136.839 310.035 133.114C310.017 133.095 309.979 133.076 309.96 133.056C309.001 132.361 308.098 131.609 307.233 130.837C298.975 123.426 294.574 112.638 292.749 101.618C291.865 96.2526 291 89.5172 291.715 83.3221C291.978 83.4379 292.223 83.5537 292.486 83.6502C292.618 83.7081 292.768 83.766 292.9 83.8239C292.787 84.8082 292.749 85.7924 292.73 86.7767C292.505 98.7036 294.781 111.615 301.101 121.766C302.812 124.526 304.919 127.093 307.289 129.312C308.192 130.161 309.151 130.972 310.129 131.705C315.151 135.507 321.133 137.862 327.509 137.862C328.243 137.881 328.243 139.058 327.509 139.058Z" fill="#D7C4AC"/>
<path d="M287.314 80.852C284.831 85.2136 281.99 89.3436 278.718 93.1263C268.937 104.474 255.13 112.541 240.214 113.236C239.895 113.255 239.556 113.275 239.236 113.275C231.769 113.468 224.301 111.615 217.793 107.967C214.22 105.98 210.965 103.432 208.144 100.402C208.407 100.132 208.69 99.8617 208.953 99.5915C211.586 102.448 214.671 104.88 218.019 106.79C219.58 107.678 221.198 108.469 222.872 109.145C228.552 111.441 234.496 112.31 240.421 111.982C248.792 111.538 257.087 108.701 264.309 104.127C273.62 98.2599 280.918 89.7296 286.373 80.0993C286.693 80.3888 286.994 80.6204 287.314 80.852Z" fill="#D7C4AC"/>
<path d="M272.097 101.386C266.585 101.328 261.544 97.7581 257.387 90.9455C253.832 85.1172 252.177 79.0379 252.121 78.787C251.97 78.2467 252.29 77.7063 252.798 77.5519C253.325 77.3975 253.851 77.7256 254.002 78.2467C254.058 78.4782 260.51 101.83 274.448 99.167C278.097 98.4722 280.787 96.7353 282.479 93.9948C286.166 88.012 283.965 79.173 283.947 79.0958C283.815 78.5554 284.116 78.0151 284.643 77.88C285.169 77.7449 285.696 78.0537 285.828 78.594C285.922 78.9993 288.254 88.3594 284.116 95.0756C282.122 98.2985 279 100.344 274.805 101.135C273.883 101.328 272.981 101.406 272.097 101.386Z" fill="#D5963D"/>
<path d="M320.362 146.508C319.798 146.682 319.253 146.855 318.688 147.01C317.973 146.682 317.278 146.334 316.563 145.987C314.249 144.867 311.936 143.729 309.622 142.571C308.625 142.069 307.647 141.587 306.65 141.085C289.439 132.497 271.777 123.947 252.29 124.179C246.271 124.256 240.403 125.26 234.854 127.267C230.358 128.888 226.07 131.165 222.082 134.099C219.543 135.971 217.154 138.036 214.878 140.236C212.546 142.455 210.345 144.829 208.22 147.261C207.806 147.145 207.411 147.01 207.016 146.875C209.555 143.96 212.188 141.143 215.01 138.518C217.907 135.816 220.991 133.307 224.339 131.126C227.988 128.753 231.807 126.958 235.719 125.684C252.573 120.184 271.326 124.102 287.671 130.895C294.123 133.577 300.443 136.685 306.744 139.811C307.722 140.294 308.682 140.776 309.66 141.259C313.196 143.053 316.77 144.81 320.362 146.508Z" fill="#D7C4AC"/>
<path d="M310.035 163.221C307.289 162.642 304.562 162.044 301.815 161.445C292.035 159.342 282.254 157.161 272.454 155.173C262.936 153.243 253.212 151.719 243.468 152.375C232.766 153.089 221.423 157.18 213.693 164.939C213.693 164.9 213.693 164.842 213.693 164.803C213.711 164.321 213.711 163.838 213.73 163.337C215.762 161.407 218 159.708 220.389 158.222C236.527 148.303 255.845 150.58 273.469 154.189C285.658 156.678 297.809 159.303 309.96 161.947C309.979 162.372 309.998 162.796 310.035 163.221Z" fill="#D7C4AC"/>
<path d="M250.014 191.861C248.453 199.986 244.954 208.053 241.437 215.464C237.863 222.991 233.386 230.074 227.461 235.883C226.935 236.404 226.107 235.574 226.653 235.053C232.747 229.089 237.261 221.756 240.873 213.997C243.995 207.281 247.023 200.102 248.66 192.826C250.296 185.608 249.732 177.194 242.96 172.929C237.318 169.397 229.944 169.841 224.245 172.948C220.107 175.206 216.759 178.526 213.919 182.289C213.881 181.691 213.862 181.112 213.843 180.513C217.248 176.248 221.348 172.601 226.427 170.632C232.314 168.336 239.65 168.799 244.766 172.774C250.578 177.31 251.35 184.991 250.014 191.861Z" fill="#D7C4AC"/>
<path d="M291.602 238.835C282.968 233.181 275.238 226.117 268.842 217.896C259.626 206.065 246.948 184.412 263.895 173.257C271.005 168.567 280.053 167.563 288.291 167.448C295.796 167.332 303.264 168.277 310.524 170.072C310.524 170.188 310.543 170.304 310.562 170.42C310.581 170.709 310.618 171.018 310.637 171.307C302.643 169.3 294.405 168.335 286.166 168.683C278.322 169.011 269.651 170.207 263.181 175.187C255.751 180.918 255.488 190.24 258.648 198.558C261.789 206.799 267.168 214.422 272.868 220.984C278.51 227.487 285.019 233.142 292.185 237.832C292.806 238.218 292.242 239.241 291.602 238.835Z" fill="#D7C4AC"/>
<path d="M206.846 128.714C202.859 132.092 197.46 132.439 192.664 130.837C191.009 130.277 189.447 129.525 187.98 128.637C188.187 128.27 188.394 127.904 188.582 127.537C193.83 130.818 199.717 132.362 205.266 128.463C209.875 125.24 210.552 119.528 208.031 114.645C206.545 111.789 204.232 109.608 201.692 107.717C201.937 107.408 202.182 107.118 202.407 106.829C205.398 109.087 208.107 111.731 209.611 115.301C211.624 120.049 210.815 125.356 206.846 128.714Z" fill="#D7C4AC"/>
<path d="M342.237 135.855C341.88 136.106 341.485 136.357 341.052 136.646C335.315 134.369 330.143 130.547 326.306 125.51C320.606 118.022 318.218 108.276 319.403 98.9354C319.741 99.2635 320.099 99.6108 320.437 99.9582C319.534 108.72 321.867 117.771 327.19 124.777C331.083 129.872 336.369 133.674 342.237 135.855Z" fill="#D7C4AC"/>
<path d="M242.227 95.6355C241.192 96.1565 240.12 96.5232 239.048 96.7548C234.929 97.6619 230.546 96.6969 226.878 94.4582C225.75 93.7634 224.696 92.9722 223.737 92.1037C222.91 91.351 222.119 90.5212 221.405 89.6527C221.743 89.4597 222.082 89.2474 222.402 89.0737C223.022 89.8071 223.681 90.5019 224.395 91.158C225.185 91.8721 226.013 92.5283 226.916 93.1073C230.377 95.3653 234.609 96.4846 238.597 95.6741C239.631 95.4618 240.666 95.1144 241.663 94.6319C246.647 92.1616 249.055 86.9508 248.077 81.4119C248.02 81.0452 247.926 80.6786 247.851 80.3312C248.208 80.1768 248.566 80.0224 248.904 79.868C249.13 80.7557 249.299 81.6628 249.393 82.6085C249.882 88.1474 247.117 93.2037 242.227 95.6355Z" fill="#D7C4AC"/>
<path d="M234.1 298.2C234.1 298.2 232.163 299.049 229.022 300.496C228.119 300.901 227.141 301.365 226.069 301.866C224.639 302.523 223.097 303.256 221.423 304.066C220.482 304.51 219.485 304.993 218.488 305.475C205.961 311.555 189.503 320.239 183.446 326.415C183.013 326.859 182.618 327.283 182.223 327.708C173.101 337.551 172.292 344.421 170.016 343.591C167.646 342.723 165.991 337.28 168.586 332.861C170.392 329.812 171.239 325.759 173.515 321.05C174.135 319.776 174.85 318.464 175.734 317.113C179.609 311.13 186.399 304.298 189.973 299.435C190.199 299.126 190.424 298.817 190.612 298.508C193.49 294.262 193.377 286.871 199.528 283.223C202.538 281.448 206.488 280.965 210.438 281.139C211.134 281.158 211.848 281.216 212.544 281.274C213.579 281.371 214.613 281.506 215.61 281.66C216.983 281.872 218.3 282.143 219.504 282.413C220.67 282.683 221.723 282.953 222.645 283.204C224.865 283.822 226.257 284.323 226.257 284.323L234.1 298.2Z" fill="white"/>
<path d="M210.439 281.139C207.674 287.276 200.827 299.357 189.955 299.435C190.181 299.126 190.407 298.817 190.595 298.508C193.473 294.262 193.36 286.871 199.511 283.223C202.52 281.448 206.489 280.965 210.439 281.139Z" fill="#425045"/>
<path d="M182.206 327.708C173.083 337.551 172.275 344.421 169.999 343.591C167.629 342.723 165.973 337.281 168.569 332.861C170.375 329.812 171.221 325.759 173.497 321.05C176.582 322.382 179.987 324.485 182.206 327.708Z" fill="#425045"/>
<path d="M229.004 300.496C228.101 300.902 227.123 301.365 226.051 301.866C223.305 298.643 221.368 294.417 220.333 289.322C219.806 286.736 219.6 284.343 219.505 282.432C220.672 282.702 221.725 282.973 222.647 283.223C222.741 284.825 222.966 286.697 223.361 288.704C224.189 292.699 225.826 297.157 229.004 300.496Z" fill="#425045"/>
<path d="M215.612 281.66C214.615 281.505 213.6 281.37 212.546 281.274C212.32 283.3 212.095 286.658 212.49 290.479C213.129 296.655 215.18 301.75 218.471 305.475C219.487 304.992 220.465 304.51 221.406 304.066C214.69 297.311 215.142 286.002 215.612 281.66Z" fill="#425045"/>
<path d="M226.032 278.128C225.205 299.377 238.108 300.612 238.108 300.612C238.108 300.612 240.76 300.535 246.873 298.817C247.438 298.663 248.04 298.489 248.679 298.296C252.648 297.099 257.821 295.305 264.385 292.583C265.156 292.255 265.965 291.927 266.774 291.58C271.062 289.746 275.915 287.527 281.332 284.864C289.533 280.85 299.07 275.793 310.073 269.463C341.786 251.225 369.643 225.885 379.932 204.965C386.892 190.857 385.857 178.737 372.597 172.195C370.264 171.037 367.819 170.381 365.317 170.091C348.577 168.219 331.799 184.701 331.799 184.701C298.035 208.304 287.596 228.278 273.827 244.374C273.263 245.049 272.68 245.706 272.097 246.362C271.721 246.786 271.345 247.192 270.931 247.616C268.711 249.971 266.153 252.306 263.426 254.545C254.341 262.052 243.281 268.749 235.55 273.072C235.005 273.381 234.478 273.67 233.97 273.96C229.192 276.584 226.032 278.128 226.032 278.128Z" fill="#131E07"/>
<path d="M233.989 273.96C234.308 275.484 234.76 277.009 235.287 278.514C235.493 279.074 235.7 279.653 235.926 280.213C239.199 288.569 244.767 296.096 246.892 298.817C247.456 298.663 248.058 298.489 248.698 298.296C247.155 296.366 240.892 288.222 237.45 279.325C237.224 278.765 237.017 278.186 236.829 277.627C236.302 276.121 235.888 274.597 235.588 273.091C235.023 273.381 234.497 273.67 233.989 273.96Z" fill="#425045"/>
<path d="M379.951 204.965C364.809 191.533 364.226 177.541 365.317 170.11C367.819 170.381 370.264 171.056 372.596 172.195C385.857 178.737 386.911 190.838 379.951 204.965Z" fill="#425045"/>
<path d="M235.268 278.514C235.475 279.074 235.682 279.653 235.907 280.213C236.396 279.923 236.904 279.634 237.431 279.325C249.77 271.972 268.09 258.482 288.725 241.441C308.061 225.461 330.106 205.525 332.814 199.523C334.281 196.281 334.357 193.81 333.059 192.228C331.121 189.835 326.833 190.336 324.895 190.722C324.406 190.819 324.087 191.321 324.199 191.822C324.293 192.208 324.632 192.479 324.989 192.498C325.065 192.498 325.121 192.498 325.196 192.479C327.096 192.112 330.463 191.842 331.704 193.366C332.739 194.64 332.005 196.995 331.215 198.77C329.033 203.614 310.713 220.984 287.615 240.051C271.307 253.522 250.899 269.193 236.791 277.646C236.283 277.935 235.776 278.225 235.268 278.514Z" fill="#425045"/>
<path d="M230.001 274.616C233.199 285.115 237.6 294.398 244.823 300.824C244.823 300.824 240.403 305.495 235.305 303.642C231.412 302.233 221.687 286.678 222.74 277.241C225.411 275.04 227.857 273.998 230.001 274.616Z" fill="#425045"/>
<path d="M316.638 296.154C316.638 296.154 318.632 296.868 321.848 298.103C322.77 298.45 323.786 298.836 324.877 299.261C326.344 299.82 327.942 300.457 329.654 301.152C330.632 301.538 331.629 301.943 332.683 302.368C345.567 307.617 362.533 315.183 368.966 320.953C369.418 321.358 369.85 321.764 370.264 322.15C379.989 331.355 381.23 338.187 383.431 337.184C385.744 336.161 387.061 330.622 384.183 326.396C382.189 323.462 381.098 319.467 378.521 314.932C377.825 313.697 377.017 312.442 376.057 311.149C371.825 305.437 364.602 299.068 360.746 294.436C360.502 294.147 360.257 293.838 360.05 293.568C356.909 289.515 356.552 282.142 350.194 278.919C347.091 277.337 343.103 277.125 339.172 277.549C338.476 277.626 337.78 277.723 337.084 277.839C336.049 278.012 335.034 278.205 334.056 278.418C332.701 278.726 331.403 279.074 330.218 279.441C329.071 279.788 328.037 280.116 327.134 280.444C324.952 281.197 323.597 281.814 323.597 281.814L316.638 296.154Z" fill="white"/>
<path d="M339.172 277.549C342.332 283.493 349.893 295.092 360.765 294.455C360.521 294.166 360.276 293.857 360.069 293.587C356.928 289.534 356.571 282.162 350.213 278.939C347.091 277.337 343.103 277.125 339.172 277.549Z" fill="#425045"/>
<path d="M370.264 322.15C379.989 331.355 381.23 338.187 383.431 337.184C385.744 336.161 387.061 330.622 384.183 326.396C382.189 323.462 381.098 319.467 378.521 314.932C375.55 316.476 372.277 318.792 370.264 322.15Z" fill="#425045"/>
<path d="M321.867 298.103C322.789 298.45 323.804 298.836 324.895 299.261C327.435 295.864 329.109 291.522 329.823 286.349C330.181 283.744 330.256 281.332 330.2 279.421C329.052 279.768 328.018 280.097 327.115 280.425C327.115 282.026 327.021 283.918 326.739 285.925C326.193 289.997 324.839 294.552 321.867 298.103Z" fill="#425045"/>
<path d="M329.673 301.152C330.651 301.538 331.648 301.943 332.701 302.368C335.748 298.45 337.479 293.239 337.723 287.025C337.874 283.184 337.441 279.845 337.103 277.838C336.068 278.012 335.052 278.205 334.074 278.417C334.789 282.721 335.955 293.973 329.673 301.152Z" fill="#425045"/>
<path d="M165.352 215.001C177.71 234.705 207.373 255.413 239.03 270.987C269.219 285.829 288.16 292.815 299.089 296.115C299.446 296.231 299.803 296.327 300.161 296.424C308.343 298.817 311.634 299.01 311.634 299.01C311.634 299.01 324.425 296.926 322.281 275.774C322.281 275.774 318.481 272.763 312.801 268.266C312.312 267.88 311.804 267.475 311.296 267.07C300.48 258.52 284.078 245.57 273.338 237.098C243.243 213.36 240.478 214.75 212.734 191.436C212.734 191.436 195.26 175.727 179.328 176.827C175.867 177.058 172.481 177.946 169.378 179.741C155.91 187.518 156.286 200.526 165.352 215.001Z" fill="#131E07"/>
<path d="M299.108 296.096C299.145 296.154 299.183 296.212 299.239 296.25C299.371 296.366 299.522 296.443 299.672 296.482C299.841 296.52 300.011 296.501 300.18 296.424C300.274 296.385 300.387 296.308 300.462 296.212C306.462 289.669 309.998 279.19 311.71 272.86C311.879 272.223 312.03 271.624 312.18 271.084C312.481 269.868 312.688 268.884 312.82 268.266C312.331 267.88 311.823 267.475 311.315 267.07C311.296 267.108 311.296 267.128 311.296 267.166C311.296 267.205 311.071 268.382 310.6 270.235C310.469 270.775 310.318 271.374 310.149 272.01C308.494 278.148 305.014 288.646 299.239 294.976C298.92 295.305 298.882 295.748 299.108 296.096Z" fill="#425045"/>
<path d="M179.328 176.827C179.328 183.909 178.35 207.512 165.371 215C156.305 200.526 155.929 187.518 169.397 179.741C172.481 177.946 175.867 177.058 179.328 176.827Z" fill="#425045"/>
<path d="M212.621 200.063C215.687 205.892 238.935 224.322 259.25 238.99C279.432 253.58 297.433 265.217 310.13 272.011C310.675 272.3 311.202 272.57 311.71 272.84C311.879 272.204 312.029 271.605 312.18 271.065C311.653 270.795 311.127 270.505 310.6 270.216C296.154 262.419 276.348 249.122 260.265 237.504C236.039 219.999 216.646 203.884 214.163 199.195C213.26 197.496 212.395 195.18 213.336 193.849C214.464 192.247 217.85 192.286 219.768 192.517C219.806 192.517 219.844 192.517 219.881 192.517C220.295 192.517 220.652 192.208 220.728 191.784C220.822 191.282 220.483 190.8 219.975 190.722C218.019 190.471 213.712 190.259 211.925 192.768C210.721 194.486 210.947 196.937 212.621 200.063Z" fill="#425045"/>
<path d="M318.105 272.512C315.566 283.204 311.766 292.757 304.957 299.647C304.957 299.647 309.66 304.009 314.625 301.847C318.425 300.188 327.153 284.034 325.516 274.674C322.713 272.648 320.212 271.76 318.105 272.512Z" fill="#425045"/>
<path d="M356.439 181.787C352.056 192.575 341.767 192.209 330.651 175.843C324.218 166.367 318.575 156.486 314.155 148.149C312.443 144.926 310.938 141.934 309.622 139.29L309.791 123.658L328.619 111.229C328.619 111.229 335.466 122.153 342.463 135.662C351.134 152.375 360.013 173.006 356.439 181.787Z" fill="#E8A36F"/>
<path d="M288.16 204.888C297.659 198.23 309.321 190.394 313.948 186.148C325.328 175.688 345.304 158.937 355.743 167.177C355.743 167.177 364.395 184.431 350.251 195.837C336.783 206.702 306.575 218.803 292.486 223.415C290.85 217.297 288.988 211.18 288.16 204.888Z" fill="#E8A36F"/>
<path d="M329.184 174.299C329.334 174.299 329.485 174.241 329.617 174.125C334.902 169.416 342.407 166.502 342.482 166.463C342.84 166.328 343.028 165.904 342.896 165.537C342.764 165.17 342.351 164.977 341.993 165.112C341.673 165.228 334.168 168.162 328.695 173.025C328.394 173.295 328.375 173.739 328.62 174.048C328.751 174.241 328.977 174.318 329.184 174.299Z" fill="#B05935"/>
<path d="M330.331 173.334C330.67 173.315 330.952 173.064 330.989 172.716C331.441 169.474 335.391 166.328 335.428 166.29C335.729 166.039 335.786 165.595 335.56 165.267C335.316 164.958 334.883 164.881 334.563 165.132C334.375 165.267 330.124 168.683 329.579 172.504C329.522 172.909 329.786 173.276 330.181 173.315C330.237 173.334 330.293 173.334 330.331 173.334Z" fill="#B05935"/>
<path d="M344.325 134.388C344.325 134.388 343.686 134.871 342.501 135.681C342.426 135.739 342.332 135.797 342.256 135.855C341.899 136.106 341.504 136.357 341.071 136.646C339.717 137.515 337.987 138.576 335.955 139.715C335.635 139.888 335.297 140.081 334.958 140.255C331.008 142.397 326.005 144.732 320.381 146.508C319.817 146.682 319.271 146.855 318.707 147.01C318.594 147.048 318.5 147.068 318.387 147.106C318.011 147.222 317.654 147.319 317.259 147.415C316.262 147.685 315.227 147.936 314.193 148.148C313.12 148.38 312.029 148.592 310.938 148.766C310.938 148.766 310.431 148.264 309.565 147.357L309.659 139.29L309.829 123.658L310.186 91.2544C312.951 93.1457 316.073 95.6546 319.422 98.9162C319.76 99.2443 320.118 99.5916 320.456 99.939C322.074 101.579 323.767 103.394 325.478 105.401C325.742 105.709 325.986 105.999 326.249 106.308C329.052 109.647 331.949 113.526 334.883 118.003C335.146 118.389 335.391 118.794 335.654 119.2C338.513 123.658 341.429 128.695 344.325 134.388Z" fill="white"/>
<path d="M318.349 147.106C317.973 147.222 317.616 147.319 317.221 147.415C314.305 132.922 317.277 117.694 325.459 105.42C325.723 105.729 325.967 106.018 326.231 106.327C318.349 118.273 315.547 133.037 318.349 147.106Z" fill="#D7C4AC"/>
<path d="M335.937 139.715C335.617 139.889 335.278 140.082 334.94 140.255C332.043 133.288 331.893 125.24 334.883 118.003C335.147 118.389 335.391 118.795 335.655 119.2C333.115 125.916 333.303 133.288 335.937 139.715Z" fill="#D7C4AC"/>
<path d="M199.755 112.213C199.755 112.213 166.274 167.37 172.952 183.157C177.485 193.868 187.773 193.366 198.645 176.827C213.956 153.571 224.546 128.038 224.546 128.038L199.755 112.213Z" fill="#E8A36F"/>
<path d="M241.55 205.236C231.957 198.712 220.182 191.07 215.499 186.901C203.968 176.615 183.767 160.153 173.441 168.567C173.441 168.567 165.033 185.936 179.328 197.149C192.946 207.822 223.324 219.459 237.487 223.859C239.048 217.684 240.816 211.546 241.55 205.236Z" fill="#E8A36F"/>
<path d="M200.112 175.263C199.962 175.263 199.811 175.205 199.68 175.09C194.319 170.458 186.776 167.659 186.701 167.621C186.325 167.486 186.137 167.061 186.268 166.694C186.4 166.308 186.814 166.115 187.171 166.251C187.491 166.366 195.034 169.184 200.583 173.97C200.883 174.221 200.921 174.684 200.677 174.993C200.526 175.186 200.319 175.283 200.112 175.263Z" fill="#B05935"/>
<path d="M198.946 174.318C198.608 174.299 198.326 174.048 198.269 173.701C197.78 170.478 193.774 167.37 193.736 167.332C193.416 167.1 193.36 166.637 193.585 166.309C193.811 165.981 194.263 165.923 194.582 166.155C194.77 166.29 199.078 169.648 199.661 173.45C199.717 173.836 199.454 174.222 199.078 174.28C199.021 174.318 198.984 174.318 198.946 174.318Z" fill="#B05935"/>
<path d="M240.422 112.001C240.365 112.406 240.29 112.831 240.215 113.236C239.97 114.548 239.651 115.899 239.237 117.27C238.428 120.029 237.186 122.886 235.719 125.684C235.437 126.205 235.155 126.726 234.854 127.247C228.271 138.962 218.02 149.441 218.02 149.441C216.778 149.268 215.555 149.036 214.352 148.805C212.245 148.361 210.195 147.84 208.22 147.222C207.806 147.106 207.411 146.971 207.016 146.836C193.868 142.59 184.407 135.546 184.407 135.546C185.592 133.114 186.796 130.798 187.999 128.598C188.206 128.232 188.413 127.865 188.601 127.498C193.04 119.45 197.479 112.947 201.712 107.697C201.956 107.388 202.201 107.099 202.426 106.809C204.383 104.416 206.301 102.293 208.144 100.402C208.408 100.132 208.69 99.8617 208.953 99.5916C213.693 94.8825 217.944 91.7368 221.368 89.6718C221.706 89.4788 222.045 89.2665 222.365 89.0928C226.916 86.4874 229.776 85.8698 229.964 85.8505C233.631 88.1857 236.641 91.5052 238.56 95.6931C238.729 96.0405 238.879 96.4072 239.03 96.7739C240.741 101.039 241.343 106.153 240.422 112.001Z" fill="white"/>
<path d="M240.421 112.001C240.365 112.406 240.29 112.831 240.215 113.236C239.895 113.255 239.556 113.275 239.236 113.275C231.769 113.468 224.302 111.615 217.793 107.967C214.22 105.979 210.966 103.432 208.144 100.402C208.407 100.132 208.69 99.8616 208.953 99.5914C211.586 102.448 214.671 104.879 218.019 106.79C219.58 107.678 221.198 108.469 222.872 109.145C228.553 111.46 234.515 112.329 240.421 112.001Z" fill="#D7C4AC"/>
<path d="M235.7 125.684C235.418 126.205 235.136 126.726 234.835 127.247C230.34 128.868 226.051 131.146 222.063 134.079C219.524 135.951 217.135 138.016 214.859 140.216C212.527 142.436 210.326 144.81 208.201 147.241C207.787 147.125 207.392 146.99 206.997 146.855C209.536 143.941 212.17 141.123 214.991 138.499C217.888 135.797 220.972 133.288 224.321 131.107C227.988 128.753 231.788 126.958 235.7 125.684Z" fill="#D7C4AC"/>
<path d="M206.846 128.714C202.859 132.091 197.46 132.439 192.664 130.837C191.009 130.277 189.447 129.525 187.98 128.637C188.187 128.27 188.394 127.903 188.582 127.537C193.83 130.818 199.717 132.361 205.266 128.463C209.875 125.24 210.552 119.528 208.031 114.645C206.545 111.789 204.232 109.608 201.692 107.716C201.937 107.408 202.182 107.118 202.407 106.829C205.398 109.087 208.107 111.731 209.611 115.301C211.624 120.049 210.815 125.356 206.846 128.714Z" fill="#D7C4AC"/>
<path d="M239.048 96.7739C234.929 97.6809 230.546 96.716 226.879 94.4773C225.75 93.7825 224.697 92.9912 223.737 92.1228C222.91 91.3701 222.12 90.5402 221.405 89.6718C221.744 89.4788 222.082 89.2665 222.402 89.0928C223.023 89.8261 223.681 90.5209 224.396 91.1771C225.186 91.8912 226.013 92.5473 226.916 93.1263C230.377 95.3843 234.609 96.5037 238.597 95.6931C238.747 96.0405 238.898 96.4072 239.048 96.7739Z" fill="#D7C4AC"/>
<path d="M218.772 149.249C218.903 149.249 219.035 149.21 219.129 149.113C230.753 138.923 237.393 123.6 237.45 123.465C237.581 123.175 237.45 122.828 237.149 122.693C236.866 122.558 236.528 122.693 236.396 123.002C236.34 123.156 229.794 138.229 218.377 148.245C218.132 148.457 218.113 148.824 218.32 149.075C218.452 149.171 218.602 149.249 218.772 149.249Z" fill="#131E07"/>
<path d="M232.051 132.979C232.089 132.979 232.108 132.979 232.145 132.979C236.321 132.226 240.102 129.273 240.252 129.138C240.497 128.945 240.553 128.579 240.365 128.328C240.177 128.077 239.82 128.019 239.575 128.212C239.537 128.231 235.87 131.107 231.957 131.821C231.656 131.879 231.449 132.188 231.506 132.496C231.543 132.786 231.788 132.979 232.051 132.979Z" fill="#131E07"/>
<path d="M309.659 146.643C309.96 146.643 310.205 146.412 310.223 146.103C310.28 145.215 311.653 124.121 308.512 115.128C308.399 114.819 308.079 114.664 307.778 114.78C307.477 114.896 307.327 115.224 307.44 115.533C310.487 124.295 309.095 145.833 309.076 146.045C309.057 146.373 309.283 146.643 309.603 146.663C309.64 146.643 309.659 146.643 309.659 146.643Z" fill="#131E07"/>
<path d="M234.496 240.167L227.838 227.391C226.182 224.206 228.439 220.347 231.957 220.366L335.278 220.733L332.344 237.176L234.496 240.167Z" fill="#A36A24"/>
<path d="M330.256 237.716L237.807 238.411C235.568 238.43 233.951 236.577 234.176 234.3L240.064 175.65C240.29 173.353 242.283 171.481 244.522 171.462L336.971 170.767C339.209 170.748 340.827 172.601 340.601 174.878L334.714 233.528C334.488 235.825 332.494 237.697 330.256 237.716Z" fill="#D5963D"/>
<path d="M236.734 239.067C236.697 239.067 236.678 239.067 236.64 239.067C236.208 239.009 235.907 238.623 235.963 238.179L243.186 175.341C243.242 174.897 243.619 174.588 244.051 174.646C244.484 174.704 244.785 175.09 244.728 175.534L237.506 238.372C237.449 238.758 237.129 239.067 236.734 239.067Z" fill="#A36A24"/>
<path d="M281.464 203.788C281.144 208.497 284.549 212.531 289.082 212.801C293.615 213.071 297.527 209.462 297.847 204.753C298.167 200.044 294.762 196.011 290.229 195.76C285.715 195.47 281.784 199.079 281.464 203.788Z" fill="#A36A24"/>
<path d="M331.027 240.939L237.299 241.634C235.23 241.653 233.631 239.8 233.894 237.697L234.741 230.981L335.334 230.228L334.375 237.89C334.149 239.627 332.72 240.92 331.027 240.939Z" fill="#A36A24"/>
<path d="M88.4586 244.78C88.4586 244.78 87.4052 238.623 88.0636 229.167C89.1169 214.075 99.1424 201.125 113.25 196.725C124.912 193.097 140.335 190.781 156.173 195.567C157.339 195.914 158.505 196.3 159.672 196.744C193.472 209.211 188.996 275.388 183.804 312.559C178.613 349.748 178.274 372.135 162.926 375.802C155.872 377.481 145.583 377.693 136.498 377.443C134.598 377.385 132.774 377.307 131.025 377.23C131.025 377.23 111.933 379.083 102.058 370.533C92.1829 361.984 88.4586 244.78 88.4586 244.78Z" fill="#731F07"/>
<path d="M136.479 377.442C145.564 377.713 155.853 377.5 162.907 375.802C178.255 372.135 178.594 349.729 183.785 312.559C188.977 275.388 193.472 209.211 159.653 196.744C158.486 196.319 157.32 195.933 156.154 195.567C150.417 197.014 145.169 200.97 142.385 209.578C134.824 232.969 147.671 313.871 136.479 377.442Z" fill="#A5410F"/>
<path d="M155.477 371.132C162.474 371.074 167.91 368.063 171.202 362.408C176.356 353.55 183.315 277.762 183.616 274.539C183.654 274.153 183.372 273.787 182.977 273.748C182.582 273.709 182.243 273.999 182.205 274.404C182.13 275.195 174.964 353.087 169.979 361.675C166.819 367.117 161.741 369.8 154.894 369.704C149.684 369.626 145.357 367.87 145.32 367.851C144.962 367.696 144.549 367.889 144.417 368.256C144.267 368.623 144.455 369.047 144.812 369.182C145 369.26 149.383 371.035 154.837 371.132C155.044 371.132 155.27 371.132 155.477 371.132Z" fill="#731F07"/>
<path d="M147.615 217.742C148.01 217.742 148.311 217.414 148.311 217.008C148.292 214.731 149.815 209.173 153.54 206.124C155.929 204.155 158.788 203.557 162.004 204.329C170.205 206.278 172.688 216.892 172.707 216.989C172.801 217.375 173.177 217.626 173.553 217.529C173.929 217.433 174.174 217.047 174.08 216.661C173.967 216.198 171.39 205.062 162.324 202.92C158.656 202.051 155.402 202.746 152.656 205.004C148.687 208.266 146.881 214.113 146.9 217.028C146.9 217.433 147.22 217.742 147.615 217.742Z" fill="#731F07"/>
<path d="M151.32 222.161C151.32 222.161 151.772 209.443 161.139 210.389C170.487 211.334 171.089 232.293 162.756 235.072C150.549 239.125 151.32 222.161 151.32 222.161Z" fill="#731F07"/>
<path d="M254.961 39.7833C254.961 39.7833 244.579 46.017 248.265 50.3207C251.952 54.6437 255.977 53.7752 255.977 53.7752C255.977 53.7752 250.899 59.7773 256.805 63.3284C262.692 66.8794 269.52 52.405 269.52 52.405C269.52 52.405 263.388 35.9042 254.961 39.7833Z" fill="#A36A24"/>
<path d="M252.027 37.0815C252.027 37.0815 244.973 26.6793 247.513 21.0246C250.052 15.3699 254.228 16.1612 254.228 16.1612C254.228 16.1612 252.986 5.72033 258.008 3.03774C263.031 0.355156 269.501 3.61672 269.501 3.61672C269.501 3.61672 273.188 2.69036 279.244 3.05704C284.756 3.38513 285.79 7.74675 285.79 7.74675C285.79 7.74675 300.255 4.60098 304.826 9.52228C309.396 14.4436 303.039 20.7737 303.039 20.7737C303.039 20.7737 317.767 22.2019 315.171 32.5076C313.158 40.4975 301.101 40.3045 301.101 40.3045C301.101 40.3045 302.945 49.6839 294.424 50.0506C291 50.205 261.846 34.4761 252.027 37.0815Z" fill="#A36A24"/>
<path d="M254.585 77.7646C258.291 81.4893 262.749 83.4578 266.511 84.5193C272.36 86.1983 279.113 84.5579 283.665 81.8174L284.004 72.824L284.079 70.9906L284.21 67.5167L263.407 52.444L262.203 51.5756L261.394 50.9966L261.093 51.7685L260.755 52.6563L260.849 53.0423C258.987 61.7269 257.933 71.6081 254.585 77.7646Z" fill="#E8A36F"/>
<path d="M283.74 79.9453C275.276 77.5522 270.856 69.7167 269.013 65.3744C273.094 69.0026 278.079 71.4536 282.649 71.1642C283.138 71.1256 283.628 71.0677 284.079 70.9905L283.74 79.9453Z" fill="#131E07"/>
<path d="M260.416 51.7683C260.454 51.7876 260.51 51.7876 260.548 51.7876C260.604 52.0771 260.661 52.3666 260.736 52.656C260.774 52.7911 260.793 52.9069 260.83 53.042C263.219 61.8039 273.677 71.7237 282.649 71.164C283.138 71.1254 283.627 71.0675 284.079 70.9903C292.543 69.4657 295.007 59.5266 294.236 52.2894C294.236 52.2894 294.255 52.0192 294.311 51.5367C294.33 51.363 294.349 51.17 294.368 50.9577C294.443 50.2822 294.537 49.3559 294.669 48.2751C294.669 48.2558 294.669 48.2558 294.669 48.2365C295.064 44.9943 295.703 40.2274 296.625 35.5569C298.224 27.3162 293.521 14.7524 277.176 10.8926C260.83 7.03271 254.002 19.1526 254.04 27.9145C254.04 30.1146 254.454 32.6621 255.056 35.2482C253.476 35.2675 251.764 36.0587 250.729 38.8378C248.792 43.9521 254.585 50.8419 260.416 51.7683Z" fill="#E8A36F"/>
<path d="M287.521 57.0758C284.793 57.8092 281.916 56.9214 280.072 54.7213C279.64 54.2002 280.354 53.409 280.806 53.9301C282.405 55.8407 284.831 56.6705 287.22 56.0144C287.897 55.8407 288.179 56.8828 287.521 57.0758Z" fill="#B05935"/>
<g opacity="0.5">
<g opacity="0.5">
<g opacity="0.5">
<g opacity="0.5">
<g opacity="0.5">
<g opacity="0.5">
<path opacity="0.5" d="M270.442 47.349C270.348 48.2754 272.53 49.2983 275.332 49.6264C278.135 49.9544 280.486 49.4527 280.599 48.5263C280.712 47.5999 278.511 46.5771 275.708 46.249C272.887 45.9209 270.536 46.4034 270.442 47.349Z" fill="#B05935"/>
</g>
</g>
</g>
</g>
</g>
</g>
<g opacity="0.5">
<g opacity="0.5">
<g opacity="0.5">
<g opacity="0.5">
<g opacity="0.5">
<g opacity="0.5">
<path opacity="0.5" d="M294.311 51.5563C294.33 51.3826 294.349 51.1897 294.368 50.9774C294.443 50.3019 294.537 49.3755 294.668 48.2948C294.668 48.2755 294.668 48.2755 294.668 48.2562C292.374 48.1597 290.587 48.6422 290.512 49.4527C290.418 50.244 292.035 51.1125 294.311 51.5563Z" fill="#B05935"/>
</g>
</g>
</g>
</g>
</g>
</g>
<path d="M276.31 36.6381C276.047 36.5609 275.821 36.4065 275.614 36.1942C274.956 35.5188 274.956 34.4187 275.614 33.7239C275.765 33.5695 279.546 29.8062 284.097 31.9484C284.944 32.3537 285.32 33.3766 284.925 34.2643C284.53 35.1328 283.533 35.5188 282.668 35.1135C280.223 33.9555 278.022 36.1749 278.003 36.1942C277.552 36.6767 276.893 36.8118 276.31 36.6381Z" fill="#A36A24"/>
<path d="M293.86 38.6645C293.389 38.5101 292.976 38.1627 292.788 37.6416C292.261 36.2714 289.91 35.9819 289.308 35.9626C288.367 35.9626 287.615 35.1713 287.634 34.2064C287.634 33.2414 288.405 32.4695 289.345 32.4888C291.245 32.5081 294.781 33.3379 295.966 36.3486C296.305 37.2364 295.891 38.2592 295.026 38.6066C294.612 38.7803 294.217 38.7803 293.86 38.6645Z" fill="#A36A24"/>
<path d="M291.246 44.6861C291.039 45.8633 290.399 46.7318 289.797 46.6353C289.195 46.5388 288.875 45.4966 289.082 44.3194C289.289 43.1421 289.929 42.2737 290.531 42.3702C291.133 42.4667 291.452 43.5088 291.246 44.6861Z" fill="#131E07"/>
<path d="M287.841 41.9647C287.784 41.9454 287.728 41.8875 287.709 41.8296C287.634 41.6752 287.671 41.4822 287.822 41.405C287.953 41.3278 290.888 39.6681 293.183 41.6752C293.314 41.791 293.333 41.984 293.22 42.1191C293.107 42.2542 292.919 42.2735 292.788 42.1577C290.813 40.4401 288.16 41.9454 288.123 41.9647C288.029 42.0033 287.916 42.0033 287.841 41.9647Z" fill="#131E07"/>
<path d="M295.157 38.182C291.452 37.3521 287.803 39.7645 286.975 43.5665C286.806 44.3191 286.787 45.0718 286.844 45.7859L288.01 46.2297C287.859 45.4578 287.878 44.6279 288.047 43.8173C288.725 40.6137 291.791 38.6066 294.913 39.3013C298.017 39.9961 299.992 43.1419 299.314 46.3455C298.637 49.5492 295.552 51.5563 292.449 50.8616C291.001 50.5335 289.778 49.6843 288.988 48.5263L288.047 49.086C288.988 50.5142 290.455 51.5756 292.223 51.9616C295.91 52.7722 299.578 50.3791 300.387 46.5771C301.195 42.7559 298.844 39.0118 295.157 38.182Z" fill="white"/>
<path d="M271.891 42.6015C272.699 38.8188 276.367 36.4064 280.054 37.217C283.741 38.0468 286.092 41.8102 285.302 45.5928C284.493 49.3755 280.825 51.7879 277.138 50.9773C273.433 50.1475 271.082 46.3841 271.891 42.6015ZM272.944 42.833C272.267 46.0174 274.242 49.1825 277.345 49.8773C280.449 50.572 283.534 48.5456 284.211 45.3612C284.888 42.1769 282.913 39.0118 279.809 38.317C276.706 37.6223 273.621 39.6487 272.944 42.833Z" fill="white"/>
<path d="M298.976 46.9051C299.145 46.9437 299.334 46.9051 299.465 46.77C299.691 46.5577 299.691 46.2104 299.484 45.9788C299.428 45.9209 298.186 44.5892 295.685 44.1453C295.384 44.0874 295.101 44.2997 295.045 44.6085C294.989 44.9173 295.195 45.2068 295.496 45.2647C297.622 45.6507 298.675 46.7507 298.694 46.77C298.788 46.8279 298.882 46.8858 298.976 46.9051Z" fill="white"/>
<path d="M273.094 40.0731C268.542 37.873 265.194 37.9888 263.2 38.452L263.313 39.5906C265.081 39.166 268.26 38.9923 272.643 41.096C272.906 41.2311 273.245 41.1153 273.376 40.8258C273.489 40.5556 273.376 40.2082 273.094 40.0731Z" fill="white"/>
<path d="M255.055 35.2483C255.055 35.2483 258.704 34.9009 260.943 37.1397C263.181 39.3591 263.049 45.0716 266.078 45.3804C269.106 45.6892 265.024 31.1183 266.623 29.0919C268.203 27.0655 277.063 29.4586 279.771 25.8882C282.461 22.3372 285.659 22.3565 288.762 25.6759C291.866 28.9954 299.39 32.064 298.769 27.1041C298.148 22.1442 286.75 9.00141 276.818 8.69262C266.905 8.38384 256.617 10.6032 253.946 20.7739C251.275 30.9253 255.055 35.2483 255.055 35.2483Z" fill="#A36A24"/>
<path d="M264.799 51.286C264.385 51.807 263.896 52.193 263.407 52.4632C262.504 52.9457 261.545 53.0615 260.849 53.0615C260.811 52.9264 260.774 52.8106 260.755 52.6755C260.68 52.386 260.623 52.0965 260.567 51.7877C260.529 51.7877 260.492 51.7684 260.435 51.7684C260.623 51.7877 260.849 51.7877 261.094 51.7684C261.432 51.7491 261.808 51.7105 262.203 51.5754C262.786 51.4018 263.37 51.0737 263.84 50.4754C264.047 50.2052 264.442 50.1666 264.705 50.3789C264.968 50.6298 265.006 51.0158 264.799 51.286Z" fill="#B05935"/>
<path d="M283.402 59.5652C282.555 59.2951 282.16 58.6389 282.142 58.6003C282.029 58.4073 282.085 58.1564 282.273 58.0406C282.461 57.9248 282.706 57.9827 282.819 58.1757C282.838 58.2143 283.364 59.0442 284.512 58.8319C284.737 58.7933 284.944 58.9477 284.982 59.16C285.019 59.3916 284.869 59.6038 284.662 59.6424C284.154 59.7196 283.74 59.681 283.402 59.5652Z" fill="#B05935"/>
<path d="M259.457 47.3681C259.213 47.2909 259.043 47.0593 259.025 46.7891C258.818 42.3117 253.984 39.687 253.946 39.6484C253.645 39.494 253.532 39.1081 253.683 38.7993C253.833 38.4905 254.209 38.3747 254.51 38.5291C254.736 38.6449 260.003 41.5012 260.266 46.7312C260.285 47.0786 260.022 47.3681 259.683 47.3874C259.608 47.3874 259.532 47.3874 259.457 47.3681Z" fill="#B05935"/>
<path d="M254.491 44.1453C254.416 44.126 254.341 44.0874 254.284 44.0295C254.021 43.7979 253.983 43.4119 254.209 43.1418C254.265 43.0646 255.695 41.3469 258.159 41.8101C258.498 41.868 258.723 42.1961 258.648 42.5435C258.573 42.8909 258.272 43.1225 257.933 43.0453C256.165 42.7172 255.168 43.933 255.168 43.9523C254.98 44.1646 254.717 44.2225 254.491 44.1453Z" fill="#B05935"/>
<path d="M285.997 50.8034C285.847 50.7648 285.734 50.6684 285.64 50.514C285.471 50.2052 285.565 49.8192 285.866 49.6455L289.439 47.5226L286.599 46.2681C286.43 46.1909 286.317 46.0558 286.261 45.8822L283.947 38.1625C283.853 37.8344 284.022 37.4677 284.361 37.3712C284.681 37.2747 285.038 37.4484 285.132 37.7958L287.37 45.226L291.076 46.8664C291.283 46.9629 291.433 47.1752 291.452 47.4068C291.471 47.6384 291.339 47.87 291.151 47.9858L286.524 50.7455C286.336 50.842 286.148 50.8613 285.997 50.8034Z" fill="#B05935"/>
<path d="M284.7 42.3121C284.869 42.3507 285.057 42.3121 285.189 42.177C285.358 42.0033 286.261 41.2506 287.201 42.2156C287.408 42.4279 287.765 42.4279 287.972 42.2156C288.179 42.0033 288.179 41.6366 287.972 41.4243C286.58 39.9769 285.057 40.7488 284.436 41.3664C284.21 41.5787 284.21 41.9261 284.417 42.1577C284.511 42.2349 284.605 42.2928 284.7 42.3121Z" fill="white"/>
<path d="M281.22 43.0841C281.013 44.2614 280.373 45.1298 279.771 45.0333C279.169 44.9368 278.85 43.8947 279.056 42.7174C279.263 41.5402 279.903 40.6717 280.505 40.7682C281.088 40.8647 281.408 41.9068 281.22 43.0841Z" fill="#131E07"/>
<path d="M277.27 40.71C277.213 40.6907 277.157 40.6521 277.119 40.5942C277.025 40.4591 277.044 40.2468 277.176 40.1503C277.288 40.0538 279.997 38.0274 282.536 39.7258C282.687 39.8223 282.724 40.0152 282.63 40.1696C282.536 40.324 282.348 40.3626 282.198 40.2661C280.035 38.8187 277.571 40.6521 277.552 40.6714C277.458 40.71 277.364 40.7293 277.27 40.71Z" fill="#131E07"/>
<path d="M130.047 38.2971L106.309 14.3081C106.008 13.9994 105.594 13.8257 105.143 13.845C104.71 13.8643 104.296 14.0573 104.014 14.3853L70.3828 52.7715C70.1195 53.0803 69.969 53.4662 69.969 53.8715L72.5083 410.096L75.6871 410.077L73.1478 54.4698L105.275 17.8206L127.827 40.6323C128.448 41.2691 129.464 41.2498 130.066 40.613C130.686 39.9568 130.667 38.9339 130.047 38.2971Z" fill="#131E07"/>
<path d="M106.836 424.841L41.5477 425.323L41.5289 422.814C41.4537 413.454 48.8082 405.812 57.9308 405.754L90.208 405.503C99.3307 405.426 106.779 412.972 106.836 422.332V424.841Z" fill="#131E07"/>
<path d="M162.681 49.8957C167.929 56.0714 167.308 65.4701 161.289 70.8546C155.27 76.2391 146.11 75.6022 140.862 69.4265C135.614 63.2314 136.235 53.852 142.254 48.4675C148.273 43.0637 157.433 43.7006 162.681 49.8957Z" fill="white"/>
<path d="M183.578 35.0932C167.872 20.7153 143.815 20.2328 127.526 34.7844C111.237 49.3553 108.434 73.8653 120.171 91.7942L183.578 35.0932Z" fill="#131E07"/>
<path d="M473.792 352.72L473.623 354.032L473.435 355.596L473.19 357.448L472.231 365.207L472.118 366.056L471.102 374.181L470.989 375.049L466.945 407.26L466.851 408.128L464.763 424.745L419.301 425.092L418.642 420.383L418.529 419.515L418.172 416.986L418.04 416.156L416.047 401.875L415.915 400.871L411.438 368.893L411.288 367.889L410.479 362.099L409.238 353.202L473.792 352.72Z" fill="#D5963D"/>
<path d="M424.059 388.482C423.288 393.847 420.335 398.749 416.046 401.856L415.915 400.872C421.256 396.761 424.36 389.582 423.137 382.75C421.99 376.362 417.269 371.112 411.438 368.874L411.287 367.87C413.093 368.507 414.824 369.433 416.385 370.611C421.896 374.721 425.056 381.515 424.059 388.482Z" fill="#A36A24"/>
<path d="M472.231 365.207L472.118 366.036C466.626 365.477 461.491 367.291 456.976 370.495C453.101 373.254 449.189 376.612 444.242 376.67C440.01 376.709 435.778 374.412 433.577 370.688C431.207 366.693 431.282 361.54 433.558 357.545C433.84 357.043 434.593 357.487 434.311 357.989C431.264 363.334 432.655 370.456 437.79 373.853C442.342 376.863 447.44 375.937 451.822 373.119C455.979 370.437 459.572 367.098 464.444 365.805C467.039 365.11 469.673 364.936 472.231 365.207Z" fill="#A36A24"/>
<path d="M473.623 354.032L473.435 355.596C473.002 356.29 472.513 356.927 471.967 357.545C469.485 360.382 466.061 362.312 462.318 362.794C458.086 363.335 453.779 361.907 450.543 359.127C449.866 358.548 449.227 357.892 448.644 357.197C448.286 356.773 448.888 356.136 449.246 356.561C450.017 357.487 450.882 358.317 451.822 359.031C454.7 361.192 458.274 362.312 461.886 361.945C465.234 361.617 468.337 360.015 470.688 357.622C471.666 356.618 472.532 355.48 473.209 354.245C473.303 354.071 473.472 354.013 473.623 354.032Z" fill="#A36A24"/>
<path d="M471.102 374.181L470.989 375.049C469.353 375.127 467.735 375.667 466.362 376.709C463.653 378.774 462.374 382.48 463.127 385.838C463.728 388.501 465.346 390.894 465.421 393.712C465.478 395.97 464.481 398.054 463.051 399.733C459.346 404.095 453.515 405.021 449.17 408.437C444.693 411.969 443.226 418.685 446.029 423.799C446.236 424.185 446.48 424.552 446.725 424.918H445.671C445.464 424.59 445.257 424.243 445.088 423.876C442.643 418.955 443.621 412.509 447.533 408.707C452.179 404.172 459.778 403.67 463.352 397.842C465.459 394.426 464.067 391.338 462.844 387.922C461.866 385.22 461.735 382.46 462.901 379.797C464.443 376.304 467.697 374.335 471.102 374.181Z" fill="#A36A24"/>
<path d="M458.612 416.813C458.556 420.344 460.55 423.297 463.371 424.764L461.716 424.783C459.177 422.931 457.559 419.843 457.766 416.369C458.067 411.216 462.186 407.472 466.964 407.26L466.851 408.128C462.431 408.379 458.669 412.046 458.612 416.813Z" fill="#A36A24"/>
<path d="M455.095 389.582C454.7 393.461 451.145 395.738 448.418 397.899C444.825 400.756 441.345 403.863 438.712 407.703C435.326 412.644 433.558 419.341 435.307 424.976H434.405C432.862 419.688 434.141 413.532 437 408.726C439.163 405.098 442.117 402.03 445.277 399.308C446.819 397.977 448.455 396.742 450.054 395.468C451.954 393.962 453.891 392.09 454.192 389.504C454.832 383.811 447.684 382.981 443.772 383.29C439.784 383.599 435.627 385.008 433.238 388.501C430.962 391.82 430.549 396.066 429.872 399.964C429.138 404.095 427.991 408.282 425.508 411.698C423.702 414.188 421.012 416.137 418.134 416.986L418.021 416.156C419.357 415.79 420.636 415.153 421.765 414.304C425.865 411.216 427.765 406.121 428.743 401.18C429.495 397.436 429.796 393.519 431.395 390.006C432.862 386.783 435.477 384.544 438.731 383.406C442.098 382.209 446.292 381.843 449.734 382.808C452.744 383.657 455.453 386.185 455.095 389.582Z" fill="#A36A24"/>
<path d="M427.52 425.015H426.636C426.279 423.452 425.545 422.004 424.153 421.097C422.366 419.901 420.448 419.804 418.642 420.364L418.529 419.515C420.805 418.801 423.213 419.052 425.319 420.885C426.542 421.985 427.2 423.452 427.52 425.015Z" fill="#A36A24"/>
<path d="M473.792 352.72L473.623 354.032L473.435 355.595L473.19 357.448L471.967 357.545L470.688 357.641L451.841 359.031L450.543 359.127L410.479 362.099L409.238 353.202L473.792 352.72Z" fill="#171612"/>
<path d="M479.547 353.067C454.211 355.46 428.856 355.653 403.5 353.646L403.444 346.564L479.491 346.004L479.547 353.067Z" fill="#D5963D"/>
<path d="M461.584 262.593C459.233 265.526 457.596 276.353 453.063 278.129C449.941 279.344 448.248 274.732 454.267 268.826C458.142 265.024 459.853 260.508 460.568 257.768C459.458 253.001 458.029 248.118 456.204 243.68C452.725 247.018 447.157 251.766 445.539 249.527C443.771 247.096 448.944 239.337 451.822 235.362C450.449 233.354 448.944 231.598 447.251 230.209C444.505 227.931 441.326 226.658 437.639 226.773C434.987 226.87 432.561 227.873 430.379 229.553C433.539 235.863 438.222 246.536 435.006 249.025C432.034 251.341 427.633 242.502 424.868 235.902C421.087 241.981 418.585 250.28 417.532 258.289C418.284 259.717 419.601 261.377 421.839 262.998C427.783 267.321 434.855 276.064 431.357 278.051C427.858 280.039 424.153 274.886 421.519 270.293C420.165 267.939 418.642 266.028 417.005 264.774C416.968 266.182 416.968 267.533 417.024 268.865C418.134 294.012 442.06 293.819 442.06 293.819C442.06 293.819 466.004 287.971 461.584 262.593ZM431.47 263.307C429.1 263.307 425.3 258.791 423.513 256.282C421.726 253.754 423.137 252.036 424.83 252.499C424.849 252.499 424.868 252.519 424.905 252.519C427.294 253.252 434.536 263.326 431.47 263.307ZM452.311 257.131C452.33 257.131 452.367 257.112 452.386 257.112C454.079 256.61 455.49 257.768 454.7 259.987C453.684 262.902 452.292 264.079 450.166 262.998C448.812 262.323 449.922 257.884 452.311 257.131Z" fill="#7F784B"/>
<path d="M439.239 256.456C441.421 267.437 440.819 278.804 440.104 289.921C439.333 301.79 438.261 313.697 438.787 325.605C439.088 332.36 439.916 339.095 441.552 345.657C441.684 346.216 442.531 345.965 442.399 345.406C436.549 321.841 441.609 297.775 441.609 273.921C441.609 267.977 441.233 262.033 440.085 256.186C439.972 255.645 439.126 255.896 439.239 256.456Z" fill="#171612"/>
<path d="M428.743 294.031C428.536 297.833 433.426 307.56 430.793 311.748C428.969 314.623 424.962 311.902 426.429 303.507C427.37 298.084 426.147 293.414 425.169 290.77C421.539 287.585 417.57 284.517 413.545 282.027C412.661 286.832 410.893 294.031 408.297 293.201C405.475 292.294 405.193 282.915 405.231 277.955C402.974 277.164 400.735 276.662 398.572 276.565C395.055 276.392 391.744 277.279 388.829 279.615C386.741 281.294 385.349 283.571 384.559 286.254C390.748 289.438 400.641 295.228 399.494 299.165C398.422 302.832 389.788 298.354 383.769 294.707C384.221 301.905 386.967 310.127 390.71 317.229C392.139 317.924 394.152 318.464 396.898 318.425C404.178 318.31 414.937 321.108 413.244 324.813C411.57 328.538 405.607 326.608 400.829 324.505C398.384 323.424 396.052 322.806 394.002 322.787C394.773 323.945 395.563 325.045 396.372 326.068C411.72 345.695 430.944 331.066 430.944 331.066C430.944 331.066 446.894 311.883 428.743 294.031ZM404.836 312.848C402.917 314.276 397.256 312.925 394.378 311.979C391.481 311.034 391.632 308.776 393.268 308.139C393.287 308.139 393.306 308.12 393.343 308.12C395.676 307.251 407.319 310.995 404.836 312.848ZM418.115 295.247C418.134 295.228 418.153 295.208 418.153 295.189C419.225 293.761 421.031 293.838 421.67 296.115C422.517 299.087 422.065 300.863 419.733 301.288C418.285 301.558 416.629 297.293 418.115 295.247Z" fill="#7F784B"/>
<path d="M407.131 302.581C412.792 307.849 418.398 313.311 422.987 319.622C426.505 324.447 429.213 329.754 431.677 335.196C433.426 339.056 435.082 342.954 436.793 346.814C437.019 347.335 437.771 346.872 437.546 346.351C434.743 339.982 432.129 333.498 428.856 327.361C425.921 321.86 422.272 316.862 418.115 312.288C414.843 308.66 411.325 305.263 407.751 301.944C407.338 301.558 406.717 302.195 407.131 302.581Z" fill="#171612"/>
<path d="M449.847 335.448C449.847 335.448 469.183 349.922 484.381 330.179C485.171 329.137 485.961 328.037 486.714 326.879C484.664 326.917 482.35 327.535 479.905 328.654C475.146 330.796 469.202 332.765 467.49 329.059C465.779 325.354 476.519 322.478 483.78 322.536C486.526 322.556 488.52 321.996 489.949 321.282C493.655 314.16 496.344 305.9 496.721 298.702C490.739 302.407 482.143 306.943 481.033 303.295C479.848 299.358 489.705 293.491 495.874 290.268C495.065 287.585 493.655 285.327 491.567 283.648C488.651 281.333 485.322 280.483 481.805 280.676C479.641 280.792 477.422 281.313 475.165 282.124C475.24 287.084 475.033 296.482 472.212 297.409C469.635 298.258 467.791 291.059 466.889 286.273C462.863 288.782 458.932 291.889 455.321 295.112C454.342 297.775 453.158 302.465 454.154 307.869C455.678 316.264 451.69 319.005 449.847 316.148C447.176 311.999 451.991 302.234 451.766 298.432C433.746 316.38 449.847 335.448 449.847 335.448ZM487.297 312.192C487.316 312.211 487.353 312.211 487.372 312.211C489.027 312.848 489.178 315.087 486.3 316.071C483.422 317.036 477.779 318.426 475.842 317.017C473.321 315.203 484.946 311.362 487.297 312.192ZM460.832 305.592C458.499 305.186 458.029 303.411 458.857 300.439C459.496 298.161 461.283 298.065 462.374 299.474C462.393 299.493 462.412 299.512 462.412 299.532C463.917 301.577 462.299 305.843 460.832 305.592Z" fill="#7F784B"/>
<path d="M472.832 306.152C461.302 318.194 452.161 332.128 443.339 346.313C443.038 346.796 443.79 347.24 444.091 346.757C452.875 332.649 461.96 318.773 473.453 306.769C473.848 306.364 473.227 305.727 472.832 306.152Z" fill="#171612"/>
<path d="M479.491 345.985C479.491 346.699 462.468 347.413 441.477 347.567C420.467 347.721 403.444 347.278 403.444 346.544C403.444 345.83 420.467 345.116 441.458 344.962C462.468 344.807 479.491 345.27 479.491 345.985Z" fill="#171612"/>
</svg>
