<svg width="379" height="301" viewBox="0 0 379 301" fill="none" xmlns="http://www.w3.org/2000/svg">
<path d="M54.9733 276.611V268.377C54.9733 255.706 55.054 243.065 55.2155 230.82C56.1196 160.829 68.9715 101.955 92.3988 60.5395C103.232 41.4026 116.004 26.4895 130.389 16.2272C144.824 5.91922 160.226 0.688965 176.178 0.688965C192.13 0.688965 207.533 5.91922 221.983 16.2272C236.353 26.4895 249.14 41.4026 259.974 60.5395C283.401 101.939 296.253 160.829 297.157 230.82C297.319 243.065 297.399 255.706 297.399 268.377V276.611H54.9733Z" fill="#D7C4AC"/>
<path d="M286.921 268.499H65.4193C65.4193 255.889 65.5 243.598 65.6615 231.628C65.8875 213.437 66.9531 196.358 68.713 180.439C76.2045 112.964 96.548 65.8917 121.961 39.222C124.641 36.4163 127.37 33.824 130.163 31.4605C159.128 6.91031 193.212 6.91031 222.177 31.4605C224.97 33.824 227.699 36.401 230.379 39.222C243.731 53.2354 255.679 72.8756 265.108 98.1577C277.863 132.345 285.984 176.84 286.679 231.628C286.84 243.598 286.921 255.889 286.921 268.499Z" fill="#F3E3CE"/>
<path d="M230.379 39.2217H121.977C124.658 36.416 127.386 33.8237 130.179 31.4602H222.193C224.97 33.8085 227.699 36.4007 230.379 39.2217Z" fill="#D7C4AC"/>
<path d="M302.921 268.499H49.4355V285.181H302.921V268.499Z" fill="#D7C4AC"/>
<path d="M106.768 285.196L102.038 300.689H82.8569L78.1262 285.196H106.768Z" fill="#C2AC96"/>
<path d="M278.089 285.196L273.359 300.689H254.162L249.431 285.196H278.089Z" fill="#C2AC96"/>
<path d="M109.174 235.775C108.545 235.775 108.028 235.302 108.012 234.692C107.786 223.24 117.522 218.269 117.925 218.056C118.49 217.766 119.201 217.98 119.507 218.513C119.814 219.047 119.588 219.718 119.023 219.993C119.007 220.008 116.747 221.151 114.567 223.53C111.677 226.687 110.256 230.423 110.353 234.631C110.369 235.241 109.852 235.744 109.207 235.76C109.19 235.775 109.19 235.775 109.174 235.775Z" fill="#7F784B"/>
<path d="M105.413 207.321C105.413 207.321 91.8667 183.198 140.449 166.287C142.951 165.418 145.486 167.507 144.889 169.962C141.821 182.527 131.779 211.881 105.413 207.321Z" fill="#49421F"/>
<path d="M92.0926 233.595C92.0442 233.595 91.9796 233.595 91.9312 233.579C91.3015 233.488 90.8494 232.939 90.9463 232.329C94.3046 210.386 111.629 200.185 113.582 199.087C114.131 198.782 114.858 198.95 115.181 199.468C115.504 199.987 115.342 200.658 114.777 200.978L114.745 200.993C113.921 201.451 109.611 203.967 104.961 208.892C98.5509 215.693 94.6113 223.683 93.2228 232.649C93.1582 233.198 92.6577 233.595 92.0926 233.595Z" fill="#49421F"/>
<path d="M99.2284 233.595C99.2123 233.595 99.1961 233.595 99.18 233.595C98.5342 233.564 98.0336 233.046 98.0659 232.436C98.5342 223.043 92.2212 214.488 92.1567 214.397C91.7853 213.893 91.9145 213.207 92.4311 212.857C92.9639 212.506 93.6905 212.628 94.0618 213.116C94.3363 213.497 100.891 222.387 100.391 232.527C100.359 233.137 99.8419 233.595 99.2284 233.595Z" fill="#49421F"/>
<path d="M102.587 235.212C102.571 235.212 102.571 235.212 102.555 235.212C101.909 235.196 101.408 234.693 101.425 234.083L102.426 198.371C102.442 197.761 102.975 197.288 103.62 197.304C104.266 197.319 104.767 197.822 104.751 198.432L103.75 234.144C103.733 234.739 103.217 235.212 102.587 235.212Z" fill="#7F784B"/>
<path d="M94.4657 215.022C94.4657 215.022 66.9213 223.287 57.9928 175.132C57.5245 172.646 60.1563 170.664 62.6104 171.67C75.1394 176.748 103.927 191.341 94.4657 215.022Z" fill="#49421F"/>
<path d="M112.307 224.278C112.307 224.278 137.074 238.352 157.595 193.476C158.661 191.158 156.578 188.657 153.946 189.084C140.513 191.295 108.932 199.179 112.307 224.278Z" fill="#7F784B"/>
<path d="M107.77 210.722C105.848 214.473 100.068 214.061 98.7443 210.081C92.8673 192.362 83.0347 154.821 103.41 150.505C126.273 145.671 118.62 189.526 107.77 210.722Z" fill="#7F784B"/>
<path d="M103.072 213.116C103.055 213.116 103.055 213.116 103.039 213.116C102.684 213.101 102.41 212.826 102.426 212.491L104.573 162.293C104.589 161.957 104.88 161.698 105.235 161.713C105.59 161.729 105.865 162.003 105.849 162.339L103.701 212.537C103.701 212.872 103.411 213.116 103.072 213.116Z" fill="#49421F"/>
<path d="M113.001 224.354C112.823 224.354 112.63 224.278 112.5 224.141C112.274 223.882 112.323 223.5 112.597 223.302L142.031 200.551C142.305 200.338 142.709 200.384 142.919 200.643C143.145 200.902 143.096 201.283 142.822 201.481L113.388 224.232C113.275 224.309 113.146 224.354 113.001 224.354Z" fill="#49421F"/>
<path d="M134.233 231.247L132.586 238.352L132.053 240.67L130.923 245.58L130.39 247.898L126.386 265.22C125.95 267.142 124.142 268.514 122.059 268.514H86.2478C84.165 268.514 82.3728 267.142 81.9208 265.22L77.9167 247.898L77.3839 245.58L76.2537 240.67L75.7209 238.352L74.074 231.247H134.233Z" fill="#D5963D"/>
<path d="M132.585 238.352L132.052 240.67H76.237L75.7041 238.352H132.585Z" fill="#A36A24"/>
<path d="M130.922 245.565L130.39 247.883H77.9163L77.3835 245.565H130.922Z" fill="#A36A24"/>
<path d="M273.779 248.387C273.779 248.387 265.189 250.689 255.728 239.1C248.882 230.729 236.773 212.842 220.046 212.537C220.046 212.537 239.889 204.41 257.391 212.69C274.909 220.97 284.241 242.379 273.779 248.387Z" fill="#7F784B"/>
<path d="M278.897 281.857H278.881C278.639 281.842 278.445 281.644 278.445 281.415C278.445 281.308 278.994 270.116 276.653 257.399C274.489 245.703 269.355 230.271 257.213 223.15C257.003 223.028 256.939 222.754 257.068 222.556C257.197 222.357 257.488 222.296 257.698 222.418C263.203 225.636 267.756 230.759 271.26 237.637C274.037 243.111 276.168 249.713 277.557 257.261C279.93 270.085 279.365 281.339 279.365 281.461C279.333 281.69 279.139 281.857 278.897 281.857Z" fill="#49421F"/>
<path d="M280.285 222.876C280.285 222.876 288.972 220.954 291.297 206.483C292.976 196.023 294.364 174.843 308.815 166.898C308.815 166.898 287.293 168.911 276.249 184.175C265.189 199.423 268.047 222.418 280.285 222.876Z" fill="#7F784B"/>
<path d="M292.249 282.802C292.072 282.802 291.894 282.696 291.83 282.528C291.765 282.376 286.049 267.462 281.868 249.057C279.414 238.246 277.96 228.35 277.557 219.673C277.056 208.786 278.203 199.759 280.964 192.836C281.044 192.607 281.319 192.501 281.545 192.592C281.787 192.668 281.9 192.928 281.803 193.141C275.635 208.588 278.913 231.979 282.74 248.874C286.905 267.218 292.621 282.086 292.669 282.238C292.75 282.467 292.637 282.711 292.395 282.787C292.346 282.802 292.298 282.802 292.249 282.802Z" fill="#49421F"/>
<path d="M81.3228 126.642C81.3228 126.642 87.0061 133.138 101.763 128.67C112.435 125.437 133.15 117.203 147.1 125.91C147.1 125.91 135.637 108.588 116.246 106.026C96.8711 103.464 76.3177 116.075 81.3228 126.642Z" fill="#7F784B"/>
<path d="M57.0079 151.467L57.024 151.482C57.2339 151.604 57.5246 151.543 57.6537 151.345C57.7183 151.253 63.9828 141.753 73.5571 132.528C82.3565 124.05 95.8542 114.092 110.127 114.733C110.369 114.748 110.595 114.565 110.595 114.321C110.611 114.092 110.418 113.879 110.159 113.879C103.685 113.589 96.8552 115.358 89.848 119.155C84.2617 122.174 78.5623 126.474 72.879 131.948C63.2239 141.235 56.9272 150.811 56.8626 150.902C56.7496 151.085 56.8142 151.329 57.0079 151.467Z" fill="#49421F"/>
<path d="M91.301 102.137C91.301 102.137 85.2949 95.9008 92.0922 82.7413C97.0004 73.2262 108.577 55.0347 101.44 40.762C101.44 40.762 117.957 53.9368 117.877 72.4333C117.812 90.8993 101.65 108.313 91.301 102.137Z" fill="#7F784B"/>
<path d="M45.4475 145.092C45.5928 145.199 45.8027 145.199 45.9642 145.092C46.0933 145.001 59.7686 135.791 74.2674 122.875C82.7922 115.281 89.9124 107.916 95.4665 100.978C102.425 92.2865 106.898 84.2353 108.787 77.0532C108.851 76.8245 108.69 76.5957 108.448 76.5348C108.205 76.4738 107.963 76.611 107.899 76.855C103.701 92.8812 86.9578 110.387 73.6538 122.25C59.2035 135.12 45.5767 144.315 45.4313 144.406C45.2215 144.543 45.173 144.818 45.3183 145.001C45.3668 145.031 45.4152 145.062 45.4475 145.092Z" fill="#49421F"/>
<path d="M211.892 124.553C211.247 126.551 210.601 128.487 209.923 130.439C209.261 132.391 208.566 134.328 207.856 136.264C207.162 138.201 206.451 140.137 205.725 142.059C204.998 143.98 204.272 145.917 203.513 147.838C201.995 151.681 200.461 155.538 198.863 159.366C198.039 161.287 197.248 163.193 196.393 165.114L195.117 167.996C194.697 168.957 194.229 169.918 193.793 170.878C192.921 172.8 191.969 174.736 191.032 176.658L189.531 179.585L189.159 180.317C189.095 180.439 189.03 180.561 188.949 180.698L188.723 181.095C188.417 181.629 188.142 182.178 187.819 182.696C185.365 186.92 182.459 190.747 179.311 194.254C176.162 197.777 172.755 200.964 169.139 203.876C167.331 205.325 165.458 206.713 163.552 208.024C162.6 208.68 161.615 209.32 160.614 209.945C160.113 210.265 159.597 210.57 159.08 210.875L158.273 211.333L157.353 211.851C153.09 214.611 147.278 213.574 144.372 209.549C141.449 205.523 142.547 200.034 146.809 197.289C146.777 197.304 146.842 197.258 146.858 197.228L146.955 197.136L147.181 196.923L147.681 196.481L148.699 195.566C149.393 194.941 150.071 194.3 150.749 193.645C152.105 192.348 153.429 191.007 154.721 189.665C157.288 186.95 159.694 184.16 161.841 181.293C163.972 178.426 165.877 175.483 167.395 172.525C167.589 172.159 167.766 171.778 167.944 171.412L168.073 171.138C168.122 171.046 168.17 170.955 168.219 170.833L168.509 170.192L169.704 167.6C170.479 165.816 171.27 164.047 172.029 162.217C175.097 154.944 178.067 147.457 181.022 139.954L185.462 128.686L187.69 123.044C188.433 121.168 189.192 119.277 189.934 117.448L189.951 117.402C192.243 111.745 198.96 108.924 204.95 111.104C210.665 113.193 213.636 119.11 211.892 124.553Z" fill="#E8A36F"/>
<path d="M188.691 103.968C188.691 103.968 180.764 132.62 176.178 139.619L194.245 157.261C194.245 157.246 195.456 117.524 188.691 103.968Z" fill="#131E07"/>
<path d="M257.003 250.11C256.874 250.689 256.89 252.58 256.712 253.129C256.712 253.144 256.696 253.175 256.696 253.19C256.454 253.937 256.179 254.638 255.889 255.325C253.289 261.348 233.172 262.232 213.378 260.143C198.023 258.512 182.846 255.096 176.194 250.887C169.946 246.938 183.266 210.463 183.266 210.463L260.991 221.229C260.975 221.229 260.975 231.369 257.003 250.11Z" fill="#A5410F"/>
<path d="M210.859 268.438L211.941 259.975L212.231 257.612L183.831 245.23L182.055 244.452L174.822 241.296C174.758 241.844 174.693 242.393 174.645 242.942C174.418 245.001 174.176 247.06 173.966 249.103C173.902 249.728 173.837 250.338 173.756 250.948C173.111 256.849 172.497 262.689 171.932 268.423H210.859V268.438Z" fill="#A5410F"/>
<path d="M207.227 268.438L208.211 261.272C208.276 260.799 207.921 260.357 207.42 260.296C206.92 260.235 206.452 260.57 206.387 261.043L205.37 268.438H207.227Z" fill="#731F07"/>
<path d="M191.823 229.57C191.726 230.027 189.918 238.932 183.831 245.245C182.604 246.526 181.2 247.685 179.601 248.661C178.358 249.423 177.05 250.018 175.678 250.46C175.048 250.674 174.402 250.841 173.756 250.979C173.821 250.369 173.886 249.759 173.966 249.134C174.273 249.057 174.58 248.981 174.887 248.874C176.194 248.463 177.438 247.914 178.616 247.197C179.892 246.419 181.038 245.489 182.071 244.468C188.142 238.46 189.999 229.356 190.015 229.25C190.112 228.777 190.58 228.472 191.097 228.548C191.581 228.64 191.904 229.082 191.823 229.57Z" fill="#731F07"/>
<path d="M207 256.361C206.984 256.742 207.307 257.078 207.727 257.093C208.147 257.108 208.502 256.819 208.534 256.422C208.664 253.8 208.841 251.101 209.019 248.417C209.051 247.944 209.083 247.471 209.116 246.999C209.713 238.215 210.488 229.585 211.069 223.485C211.118 222.997 211.166 222.509 211.214 222.052C211.344 220.71 211.457 219.536 211.554 218.53C211.037 218.453 210.536 218.377 210.036 218.301C209.939 219.307 209.826 220.497 209.681 221.854C209.632 222.311 209.584 222.784 209.535 223.287C208.97 229.326 208.195 237.88 207.598 246.617C207.566 247.105 207.533 247.578 207.501 248.066C207.323 250.841 207.146 253.632 207 256.361Z" fill="#731F07"/>
<path d="M204.821 247.09C205.063 247.197 206.145 247.669 207.501 248.066C207.985 248.203 208.486 248.325 209.018 248.432C209.503 248.523 209.987 248.584 210.472 248.615C211.408 248.661 212.296 248.569 213.055 248.234C213.991 247.807 214.589 247.044 214.799 246.007C215.364 243.293 216.526 232.101 217.317 224.187C217.366 223.699 217.414 223.226 217.463 222.769C217.592 221.503 217.705 220.344 217.802 219.368C217.301 219.307 216.785 219.246 216.268 219.185C216.171 220.176 216.058 221.335 215.929 222.616C215.88 223.074 215.832 223.546 215.783 224.034C214.992 231.933 213.83 243.11 213.281 245.733C213.152 246.343 212.861 246.724 212.361 246.953C211.553 247.319 210.326 247.243 209.115 246.999C208.599 246.892 208.082 246.755 207.598 246.602C206.726 246.328 205.951 246.023 205.483 245.824C205.095 245.657 204.643 245.794 204.449 246.145C204.272 246.495 204.433 246.907 204.821 247.09Z" fill="#731F07"/>
<path d="M255.195 268.438C255.679 263.574 256.131 258.984 256.535 254.913C256.583 254.333 256.648 253.754 256.696 253.19C256.696 253.159 256.713 253.144 256.713 253.129V253.113C256.761 252.549 256.826 251.985 256.874 251.451C257.714 242.79 258.263 237.133 258.263 237.133C254.727 235.745 248.43 236.614 241.649 238.368C241.051 238.52 240.454 238.688 239.84 238.856C238.71 239.176 237.564 239.512 236.434 239.862C235.836 240.045 235.239 240.244 234.642 240.427C223.63 243.979 213.378 248.6 213.378 248.6V268.453H255.195V268.438Z" fill="#A5410F"/>
<path d="M250.594 268.438C251.078 262.049 251.385 257.825 251.401 257.673C251.433 257.2 251.046 256.773 250.545 256.743C250.045 256.712 249.593 257.078 249.56 257.551C249.544 257.703 249.237 261.973 248.737 268.438H250.594Z" fill="#731F07"/>
<path d="M256.712 253.098V253.113C256.712 253.129 256.712 253.159 256.696 253.174C256.648 253.739 256.583 254.318 256.535 254.897C253.919 255.309 251.368 255.096 248.882 254.242C244.167 252.625 240.454 248.966 237.774 245.337C236.498 243.614 235.449 241.89 234.641 240.396C233.253 237.85 232.526 235.943 232.446 235.73C232.268 235.273 232.526 234.769 233.011 234.617C233.495 234.449 234.012 234.693 234.189 235.151C234.205 235.196 234.964 237.194 236.45 239.832C237.225 241.235 238.21 242.821 239.372 244.391C241.891 247.792 245.297 251.162 249.544 252.61C251.836 253.418 254.242 253.586 256.712 253.098Z" fill="#731F07"/>
<path d="M271.243 157.017C271.26 157.551 271.179 158.511 271.098 159.03C270.291 164.428 269.483 166.044 269.209 170.009C269.08 171.747 268.531 173.928 268.337 175.681C268.176 177.237 267.869 179.143 267.481 181.399C267.078 183.748 266.593 186.462 266.093 189.542C265.931 190.564 265.754 191.616 265.592 192.714C265.544 193.019 265.496 193.309 265.447 193.629C265.35 194.208 265.269 194.803 265.189 195.413L265.173 198.951C264.301 205.05 263.865 210.936 263.251 215.587C263.219 215.892 263.171 216.197 263.138 216.486C262.961 217.767 262.767 218.926 262.541 219.978C262.315 221.015 262.073 221.93 261.782 222.677C261.75 222.693 261.734 222.708 261.701 222.708L261.685 222.723C261.653 222.738 261.604 222.754 261.572 222.784C261.524 222.799 261.491 222.815 261.443 222.83C261.427 222.845 261.411 222.845 261.395 222.845C261.362 222.86 261.314 222.876 261.298 222.891C261.282 222.906 261.249 222.906 261.233 222.921C261.169 222.937 261.136 222.952 261.12 222.967C261.12 222.967 261.12 222.967 261.104 222.967C261.088 222.982 261.055 222.982 261.023 222.998C260.733 223.12 260.264 223.318 259.99 223.425C259.974 223.44 259.941 223.44 259.909 223.455C257.342 224.507 254.71 225.392 252.03 226.108C248.962 226.962 245.862 227.618 242.73 228.091C242.149 228.182 241.568 228.258 240.986 228.335C240.938 228.335 240.89 228.35 240.841 228.35C238.904 228.609 236.982 228.792 235.045 228.914C234.318 228.96 233.592 229.005 232.865 229.021C230.266 229.127 227.666 229.127 225.099 229.005C224.792 229.005 224.486 228.99 224.163 228.96C221.289 228.807 218.447 228.533 215.654 228.136C215.363 228.091 215.057 228.045 214.766 227.999C214.718 227.999 214.669 227.984 214.621 227.984C214.169 227.908 213.7 227.847 213.248 227.755C211.747 227.511 210.261 227.221 208.792 226.886C208.292 226.779 207.775 226.657 207.274 226.535C201.785 225.224 196.651 223.455 192.13 221.335C191.807 221.183 191.468 221.015 191.145 220.863C190.903 220.756 190.677 220.634 190.451 220.512C190.386 220.482 190.338 220.451 190.289 220.421C188.804 219.658 187.383 218.865 186.043 218.027C185.978 217.981 185.914 217.95 185.849 217.905C184.089 216.791 182.475 215.617 181.022 214.382C181.409 212.095 181.845 209.67 182.297 207.292C182.394 206.773 182.491 206.255 182.588 205.751C182.862 204.318 183.137 202.915 183.395 201.604V201.589C183.976 198.844 184.541 195.992 185.09 193.141C185.107 193.095 185.107 193.049 185.107 193.049C185.284 192.119 185.462 191.189 185.639 190.259C185.752 189.679 185.849 189.115 185.962 188.551C186.963 183.107 187.851 177.923 188.513 173.836C188.594 173.363 188.659 172.921 188.723 172.479C188.885 171.473 189.03 170.558 189.159 169.734C189.434 167.95 189.66 166.212 189.886 164.519C190.095 162.857 190.289 161.241 190.451 159.67C190.644 157.886 190.806 156.133 190.919 154.44C191 153.525 191.064 152.625 191.113 151.756C191.145 151.345 191.161 150.948 191.193 150.552C191.21 150.186 191.242 149.804 191.258 149.439C191.258 149.347 191.258 149.256 191.274 149.179C191.29 148.768 191.306 148.341 191.323 147.944C191.387 146.557 191.436 145.23 191.452 143.919C191.516 140.991 191.484 138.246 191.419 135.669C191.403 135.212 191.387 134.769 191.371 134.342C191.193 129.89 190.838 125.986 190.451 122.586C190.402 122.174 190.354 121.778 190.305 121.381C189.385 113.986 188.303 108.984 188.433 105.629C188.449 105.035 188.513 104.486 188.626 103.998C188.804 103.113 189.078 102.305 189.401 101.589C189.724 100.872 190.112 100.247 190.564 99.6825C192.13 97.7154 194.39 96.6023 196.974 95.7636C197.264 95.6569 197.555 95.5654 197.862 95.4739C198.669 95.2299 199.508 95.0012 200.364 94.7724C200.671 94.6962 200.962 94.62 201.284 94.5285C202.221 94.2845 203.173 94.0253 204.126 93.7355H204.142C204.869 93.5068 205.579 93.2781 206.29 93.0189C206.596 92.9121 206.887 92.7901 207.178 92.6681C207.468 92.5462 207.759 92.4242 208.033 92.3022C208.388 92.1344 208.76 91.9667 209.115 91.7685C210.988 90.7926 212.748 89.4812 214.233 87.6666C214.249 87.6514 214.265 87.6361 214.265 87.6209C214.443 87.4074 214.621 87.1787 214.782 86.9347H236.514C236.514 86.9347 237.79 87.9258 240.098 89.1457C240.357 89.283 240.631 89.4355 240.922 89.5727C241.083 89.6489 241.261 89.7252 241.422 89.8167C241.616 89.9082 241.794 89.9997 242.004 90.0911C242.117 90.1369 242.246 90.1979 242.359 90.2436C243.085 90.5791 243.893 90.8993 244.781 91.2195C245.54 91.494 246.347 91.7685 247.219 92.0125C247.493 92.1039 247.768 92.1649 248.058 92.2412C248.623 92.3937 249.221 92.5462 249.834 92.6834C250.157 92.7596 250.48 92.8206 250.803 92.8969C251.546 93.0494 252.321 93.1866 253.112 93.3086C254.662 93.5373 256.115 93.9795 257.439 94.6352C257.729 94.7724 258.004 94.9249 258.278 95.0774C259.215 95.6111 260.103 96.2516 260.926 96.9835C261.378 97.38 261.814 97.8222 262.218 98.2796C262.718 98.8286 263.187 99.4385 263.655 100.079C264.236 100.902 264.769 101.802 265.269 102.747C265.431 103.068 265.592 103.403 265.754 103.739C267.788 108.1 269.048 113.726 269.5 120.451C269.742 124.095 269.984 127.664 270.226 131.125C270.258 131.521 270.275 131.918 270.307 132.314C270.388 133.626 270.485 134.937 270.565 136.233C270.711 138.627 270.856 140.991 270.985 143.339C271.001 143.812 271.033 144.3 271.05 144.788C271.098 145.87 271.13 146.846 271.146 147.776C271.195 150.14 271.146 152.168 271.179 154.852C271.259 155.157 271.243 156.727 271.243 157.017Z" fill="#131E07"/>
<path d="M258.343 95.0622C257.003 96.709 255.55 98.2644 253.967 99.7282C252.321 101.253 250.544 102.686 248.672 103.967C246.912 105.157 244.7 106.377 242.439 106.011C238.274 105.324 237.773 100.46 237.983 97.258C238.161 94.4218 238.92 91.677 240.163 89.1305C240.421 89.2677 240.696 89.4202 240.986 89.5575C239.888 91.8295 239.21 94.254 238.984 96.7548C238.661 100.369 239.452 106.59 244.99 104.867C247.17 104.196 249.075 102.625 250.787 101.253C252.321 100.018 253.774 98.7066 255.13 97.3037C255.969 96.4346 256.761 95.5501 257.503 94.62C257.794 94.7572 258.068 94.9097 258.343 95.0622Z" fill="#425045"/>
<path d="M256.502 221.381C256.696 221.381 256.89 221.259 256.938 221.061C271.389 171.137 262.492 119.521 262.395 119.002C262.347 118.774 262.137 118.606 261.879 118.652C261.637 118.697 261.459 118.911 261.507 119.14C261.604 119.658 270.452 171.107 256.066 220.832C256.002 221.061 256.147 221.29 256.389 221.366C256.438 221.366 256.47 221.381 256.502 221.381Z" fill="#425045"/>
<path d="M198.782 54.9892C202.624 63.1015 209.89 69.3229 218.899 71.8846C220.11 72.2201 221.079 72.5708 221.676 72.891C224.986 74.6904 229.975 72.0219 232.946 67.6455C235.626 63.7114 233.818 59.4113 235.804 55.7822C240.728 46.7703 236.643 40.1219 236.643 40.1219C236.643 40.1219 234.722 35.1051 224.728 33.504C214.734 31.9029 210.261 36.142 201.607 36.5385C192.953 36.9349 191.209 37.5449 190.919 41.7382C190.628 45.9316 198.007 51.5431 198.007 51.5431C198.007 51.5431 197.555 53.3119 198.475 54.5165C198.588 54.5928 198.685 54.7605 198.782 54.9892Z" fill="#131E07"/>
<path d="M236.837 87.1485C236.03 90.7929 230.266 95.1997 227.037 96.2061C222.016 97.792 216.865 97.3345 212.78 95.3217L212.102 88.1396L211.957 86.6758L211.699 83.9005L229.12 70.985L230.121 70.2378L230.799 69.7346L231.09 70.3446L231.429 71.046L231.364 71.351C233.35 78.2281 233.673 82.3452 236.837 87.1485Z" fill="#E8A36F"/>
<path d="M212.506 93.0497C219.755 90.7776 223.404 85.0899 224.809 81.5522C221.418 84.6325 217.204 86.7978 213.216 86.752C212.78 86.752 212.376 86.7215 211.973 86.6758L212.506 93.0497Z" fill="#131E07"/>
<path d="M201.43 63.5896C201.43 63.5896 199.202 63.9708 199.024 66.7156C198.847 69.4603 200.72 73.8671 203.561 73.0742C206.419 72.266 201.43 63.5896 201.43 63.5896Z" fill="#B05935"/>
<path d="M231.848 71.9912C231.816 71.9912 231.768 72.0064 231.735 72.0064C231.687 72.2504 231.638 72.4791 231.574 72.7231C231.541 72.8299 231.525 72.9366 231.493 73.0433C231.38 73.4703 231.219 73.9125 231.057 74.3547C228.393 81.1556 219.901 88.3376 212.49 88.0022C212.054 87.9869 211.634 87.9412 211.23 87.8802C204.029 86.7823 201.656 79.2647 202.027 73.455C202.043 73.2416 202.06 73.0128 202.076 72.7994C202.076 72.7994 202.027 72.4029 201.947 71.7167C201.882 71.1678 201.769 70.4206 201.656 69.5514C201.268 66.9287 200.655 63.0403 199.783 59.2282C198.282 52.5493 202.286 42.287 216.639 38.9933C228.07 36.3553 234.302 42.0278 236.401 48.0357C236.934 49.5606 237.192 51.1159 237.209 52.5645C237.225 54.3486 236.902 56.4224 236.401 58.5267C237.774 58.5267 239.308 59.1519 240.26 61.3935C242.004 65.5106 236.983 71.1678 231.848 71.9912Z" fill="#E8A36F"/>
<path d="M236.401 58.4967C233.802 60.2045 232.155 60.5095 232.155 60.5095L229.281 64.1082L225.891 62.2631C225.891 62.2631 227.214 58.1155 224.938 56.8803C222.661 55.6452 223.614 52.9462 223.614 52.9462C223.614 52.9462 232.801 47.8685 236.401 47.9904C236.934 49.5153 237.192 51.0707 237.209 52.5193C237.225 54.3186 236.902 56.3924 236.401 58.4967Z" fill="#B05935"/>
<path d="M199.379 51.3906C199.379 51.3906 209.147 44.3153 215.186 46.4196C221.208 48.5086 223.597 52.9612 223.597 52.9612C223.597 52.9612 234.916 54.3335 237.37 51.4973C239.824 48.6611 235.787 38.0786 227.069 36.4775C218.35 34.8764 205.708 38.1396 199.379 51.3906Z" fill="#131E07"/>
<path d="M204.143 66.243C204.337 67.2036 204.902 67.8898 205.434 67.7983C205.951 67.7068 206.226 66.8529 206.048 65.9075C205.854 64.9469 205.289 64.2607 204.756 64.3522C204.24 64.4437 203.965 65.2976 204.143 66.243Z" fill="#131E07"/>
<path d="M207.372 64.3519C207.42 64.3366 207.469 64.2909 207.501 64.2451C207.565 64.1231 207.517 63.9707 207.388 63.8944C207.275 63.8334 204.659 62.5221 202.673 64.1689C202.56 64.2604 202.544 64.4281 202.641 64.5349C202.738 64.6416 202.915 64.6568 203.028 64.5654C204.74 63.1472 207.113 64.3366 207.129 64.3519C207.21 64.3824 207.307 64.3824 207.372 64.3519Z" fill="#131E07"/>
<g opacity="0.5">
<g opacity="0.5">
<g opacity="0.5">
<g opacity="0.5">
<g opacity="0.5">
<g opacity="0.5">
<g opacity="0.5">
<path opacity="0.5" d="M215.573 68.8047C215.67 69.4452 217.43 69.7502 219.497 69.4757C221.579 69.2165 223.178 68.4693 223.081 67.8288C222.984 67.1884 221.224 66.8834 219.158 67.1579C217.091 67.4324 215.476 68.1643 215.573 68.8047Z" fill="#B05935"/>
</g>
</g>
</g>
</g>
</g>
</g>
</g>
<g opacity="0.5">
<g opacity="0.5">
<g opacity="0.5">
<g opacity="0.5">
<g opacity="0.5">
<g opacity="0.5">
<g opacity="0.5">
<path opacity="0.5" d="M201.946 71.7014C203.367 71.3507 204.336 70.8017 204.271 70.2985C204.191 69.7953 203.109 69.5056 201.656 69.5361C201.785 70.4053 201.882 71.1525 201.946 71.7014Z" fill="#B05935"/>
</g>
</g>
</g>
</g>
</g>
</g>
</g>
<path d="M227.989 71.6402C228.36 72.0671 228.796 72.3569 229.232 72.5704C230.04 72.9516 230.879 73.0431 231.493 73.0278C231.525 72.9211 231.541 72.8143 231.574 72.7228C231.638 72.4789 231.687 72.2501 231.735 72.0062C231.767 72.0062 231.816 71.9909 231.848 71.9909C231.687 72.0062 231.493 72.0062 231.267 72.0062C230.976 71.9909 230.637 71.9604 230.282 71.8689C229.765 71.7317 229.248 71.4725 228.829 70.9997C228.635 70.7863 228.296 70.7558 228.07 70.9388C227.828 71.1065 227.795 71.4267 227.989 71.6402Z" fill="#B05935"/>
<path d="M211.23 87.8655C211.634 87.9265 212.054 87.9722 212.49 87.9875C219.901 88.3229 228.393 81.1409 231.057 74.34C230.831 73.5318 230.315 72.8152 229.233 72.5712L229.265 64.1083L225.875 62.2632C225.875 62.2632 223.905 70.0094 221.16 70.6194C218.415 71.2293 211.989 70.8634 209.422 72.6017C209.422 72.6017 204.756 71.5038 202.027 73.4251C201.656 79.2501 204.03 86.7523 211.23 87.8655Z" fill="#131E07"/>
<path d="M214.782 72.5251C214.782 72.5251 215.234 77.0692 211.279 77.8621C207.323 78.6551 206.29 75.0107 206.29 75.0107L214.782 72.5251Z" fill="white"/>
<path d="M212.344 79.4481C213.103 79.1889 213.426 78.6094 213.458 78.5789C213.555 78.4112 213.49 78.1977 213.313 78.1062C213.135 78.0147 212.909 78.0757 212.828 78.2435C212.812 78.274 212.36 78.9906 211.311 78.8686C211.117 78.8381 210.923 78.9754 210.907 79.1584C210.875 79.3413 211.02 79.5243 211.214 79.5396C211.666 79.6158 212.037 79.5548 212.344 79.4481Z" fill="#693B1E"/>
<path d="M232.639 68.3927C232.849 68.3317 233.01 68.1487 233.01 67.92C233.156 64.2756 237.37 62.095 237.402 62.0645C237.66 61.9273 237.773 61.6223 237.628 61.3631C237.483 61.1191 237.16 61.0124 236.901 61.1496C236.708 61.2564 232.09 63.6351 231.929 67.8742C231.913 68.164 232.155 68.3927 232.445 68.4079C232.526 68.4232 232.591 68.4079 232.639 68.3927Z" fill="#B05935"/>
<path d="M236.982 65.7401C237.047 65.7249 237.111 65.6944 237.16 65.6486C237.386 65.4657 237.418 65.1454 237.224 64.932C237.176 64.871 235.9 63.4834 233.737 63.8951C233.446 63.9561 233.253 64.2153 233.301 64.505C233.366 64.7795 233.64 64.9625 233.931 64.9167C235.481 64.627 236.369 65.6029 236.385 65.6181C236.546 65.7401 236.789 65.8011 236.982 65.7401Z" fill="#B05935"/>
<path d="M208.905 71.4729C209.034 71.4272 209.147 71.3509 209.212 71.229C209.357 70.985 209.26 70.6648 209.002 70.5275L205.838 68.8502L208.324 67.798C208.469 67.737 208.582 67.6151 208.631 67.4778L210.584 61.1954C210.665 60.921 210.504 60.6312 210.213 60.555C209.922 60.4787 209.616 60.6312 209.535 60.9057L207.646 66.9594L204.417 68.3317C204.223 68.408 204.11 68.591 204.094 68.7739C204.078 68.9722 204.191 69.1552 204.368 69.2466L208.469 71.4272C208.615 71.5034 208.76 71.5187 208.905 71.4729Z" fill="#B05935"/>
<path d="M217.688 59.8688C217.915 59.7926 218.124 59.6859 218.302 59.5029C218.883 58.9387 218.867 58.0543 218.27 57.5053C218.124 57.3833 214.766 54.3641 210.778 56.1482C210.036 56.4837 209.713 57.3223 210.068 58.039C210.423 58.7405 211.311 59.0454 212.054 58.71C214.185 57.7493 216.155 59.5181 216.171 59.5334C216.591 59.9146 217.172 60.0213 217.688 59.8688Z" fill="#131E07"/>
<path d="M202.253 61.6986C202.673 61.5767 203.012 61.2717 203.189 60.86C203.641 59.7468 205.708 59.4724 206.241 59.4571C207.064 59.4419 207.726 58.8014 207.71 58.0085C207.694 57.2308 207.016 56.6056 206.193 56.6209C204.513 56.6514 201.413 57.3681 200.412 59.8383C200.122 60.5703 200.509 61.3784 201.268 61.6682C201.591 61.8054 201.946 61.8054 202.253 61.6986Z" fill="#131E07"/>
<path d="M212.958 64.7943C213.152 65.7549 213.717 66.4411 214.25 66.3496C214.766 66.2581 215.041 65.4042 214.863 64.4588C214.669 63.4981 214.104 62.812 213.572 62.9034C213.055 62.9797 212.78 63.8336 212.958 64.7943Z" fill="#131E07"/>
<path d="M216.881 63.178C216.93 63.1628 216.978 63.1323 217.01 63.0865C217.091 62.9645 217.075 62.8121 216.946 62.7206C216.849 62.6443 214.427 61.028 212.231 62.4308C212.102 62.5071 212.07 62.6748 212.151 62.7816C212.231 62.9035 212.409 62.934 212.522 62.8578C214.411 61.6532 216.591 63.117 216.623 63.1323C216.72 63.1933 216.817 63.2085 216.881 63.178Z" fill="#131E07"/>
<path d="M197.264 112.431C195.714 116.227 193.357 119.582 190.515 122.556C190.467 122.144 190.418 121.747 190.37 121.351C192.711 118.774 194.697 115.923 196.101 112.751C198.459 107.429 198.943 101.192 197.022 95.7182C197.312 95.6267 197.619 95.52 197.91 95.4285C199.831 100.887 199.46 107.063 197.264 112.431Z" fill="#425045"/>
<path d="M265.834 103.754C262.637 108.771 257.987 112.949 252.514 115.694C251.707 116.09 250.867 116.471 250.028 116.807C241.89 120.085 232.881 120.116 224.211 120.848C215.508 121.58 207.274 123.425 200.009 128.213C196.812 130.302 193.954 132.818 191.5 135.654C191.484 135.196 191.468 134.754 191.451 134.327C193.712 131.842 196.295 129.616 199.137 127.694C205.611 123.333 213.006 121.153 220.852 120.268C229.829 119.262 239.145 119.582 247.767 116.669C249.592 116.06 251.351 115.282 253.031 114.382C258.116 111.622 262.411 107.581 265.35 102.748C265.511 103.083 265.673 103.403 265.834 103.754Z" fill="#425045"/>
<path d="M190.58 115.191C190.612 115.481 190.871 117.859 191.161 121.214C191.21 121.702 191.242 122.22 191.29 122.754C191.726 128.091 192.162 135.227 192.033 140.656C192.017 141.144 191.339 141.327 191.064 140.915L191.048 140.9C191.21 135.487 190.741 128.167 190.305 122.739C190.305 122.708 190.289 122.678 190.305 122.647C189.966 118.424 189.644 115.374 189.627 115.298C189.595 115.038 189.789 114.81 190.063 114.794C190.305 114.749 190.548 114.947 190.58 115.191Z" fill="#425045"/>
<path d="M221.693 145.108C221.144 148.478 217.123 150.857 214.621 152.869C205.934 159.868 197.264 166.852 188.578 173.836C188.659 173.363 188.723 172.921 188.804 172.479C190.354 171.229 191.904 169.978 193.47 168.728C199.654 163.742 205.854 158.755 212.038 153.784C213.652 152.488 215.25 151.207 216.865 149.896C218.124 148.874 219.416 147.792 220.223 146.389C221.353 144.406 220.627 142.287 218.237 141.738C216.752 141.402 215.186 141.631 213.733 141.906C205.741 143.415 198.12 146.389 191.29 150.536C191.307 150.155 191.339 149.789 191.355 149.423C193.551 148.112 195.843 146.922 198.185 145.87C201.333 144.452 204.611 143.263 207.953 142.333C211.036 141.479 214.702 140.289 217.963 140.777C220.239 141.128 222.08 142.76 221.693 145.108Z" fill="#425045"/>
<path d="M255.049 119.154C248.414 121.472 241.778 124.613 237.354 130.027C233.414 134.83 231.412 141.372 233.979 147.197C235.029 149.591 236.74 151.725 238.985 153.22C241.358 154.821 244.022 155.233 246.847 155.476C250.093 155.766 254.517 156.254 254.63 160.234C254.726 163.436 252.288 166.257 251.917 169.414C251.255 174.979 257.665 179.691 263.203 178.014C263.784 177.831 263.542 176.962 262.945 177.145C260.006 178.029 256.89 176.977 254.839 174.873C252.628 172.585 252.482 169.886 253.499 167.065C254.371 164.656 255.954 162.094 255.501 159.441C255.179 157.55 253.774 156.117 251.917 155.431C249.398 154.501 246.589 154.714 243.974 154.241C241.003 153.708 238.436 152.076 236.643 149.789C232.575 144.635 233.253 137.88 236.643 132.573C240.777 126.138 248.091 122.54 255.324 120.008C255.873 119.825 255.631 118.956 255.049 119.154Z" fill="#425045"/>
<path d="M265.609 192.684C265.56 192.988 265.512 193.293 265.463 193.598C262.509 193.827 259.506 193.507 256.648 192.653C253.37 191.677 250.303 189.985 247.929 187.636C244.958 184.693 243.053 180.957 241.116 177.359C239.13 173.653 236.95 169.887 233.511 167.203C229.475 164.062 224.599 163.666 219.771 165.328C215.251 166.898 211.053 169.551 207.081 172.128C203.27 174.599 199.622 177.298 196.166 180.195C192.437 183.321 188.933 186.691 185.688 190.259C185.801 189.68 185.898 189.115 186.011 188.551C189.563 184.754 193.389 181.201 197.49 177.923C200.881 175.209 204.433 172.693 208.13 170.375C211.941 167.996 215.929 165.541 220.304 164.199C224.308 162.979 228.506 163.101 232.155 165.19C235.529 167.127 238.016 170.207 239.953 173.409C242.181 177.069 243.844 181.018 246.411 184.48C248.833 187.743 252.111 190.198 256.083 191.54C259.134 192.577 262.412 192.958 265.609 192.684Z" fill="#425045"/>
<path d="M261.055 222.982C260.764 223.104 260.296 223.303 260.022 223.409C252.998 218.881 244.603 215.983 236.11 218.194C231.686 219.338 226.568 222.22 225.373 226.734C225.163 227.542 225.099 228.304 225.163 229.036C224.857 229.021 224.534 229.006 224.227 228.99C223.92 225.544 226.294 222.464 229.087 220.451C232.332 218.118 236.336 216.898 240.389 216.624C247.929 216.075 254.968 218.942 261.055 222.982Z" fill="#425045"/>
<path d="M215.719 228.152C215.412 228.106 215.121 228.06 214.831 228.015C214.782 227.999 214.734 227.999 214.685 227.984C217.414 223.989 220.078 218.804 219.061 214.169C218.367 211.012 215.525 209.106 212.199 208.984C208.954 208.862 205.821 210.25 203.044 211.699C198.54 214.047 194.536 217.188 191.226 220.878C190.984 220.772 190.758 220.65 190.515 220.528C190.451 220.497 190.402 220.467 190.354 220.436C190.758 219.979 191.177 219.536 191.597 219.094C195.811 214.733 201.22 210.906 207.145 208.908C212.538 207.094 219.287 208.496 220.11 214.672C220.708 219.262 218.431 224.126 215.719 228.152Z" fill="#425045"/>
<path d="M263.267 215.572C263.219 215.877 263.187 216.166 263.154 216.471C260.232 216.166 257.342 215.495 254.613 214.428C246.928 211.455 241.923 205.477 236.611 199.728C233.963 196.862 231.17 194.01 227.763 191.936C223.695 189.451 219.029 188.506 214.233 189.146C208.938 189.863 203.997 192.119 199.428 194.681C195.343 196.968 191.452 199.576 187.835 202.488C185.93 204.013 184.106 205.63 182.362 207.307C182.459 206.789 182.556 206.27 182.652 205.767C184.768 203.785 187.012 201.924 189.353 200.155C196.57 194.742 205.369 189.207 214.718 188.185C223.549 187.209 230.314 191.784 235.965 197.685C241.745 203.724 246.831 210.494 255.098 213.635C257.713 214.642 260.474 215.282 263.267 215.572Z" fill="#425045"/>
<path d="M264.252 141.342C264.382 141.342 264.511 141.296 264.624 141.204C264.85 141.006 264.882 140.671 264.672 140.457C264.624 140.396 259.393 134.724 254.226 129.311C254.016 129.097 253.661 129.082 253.435 129.265C253.209 129.463 253.193 129.799 253.386 130.012C258.553 135.425 263.768 141.098 263.816 141.143C263.946 141.281 264.091 141.342 264.252 141.342Z" fill="#425045"/>
<path d="M253.403 133.671L257.132 133.702C257.439 133.702 257.697 133.473 257.697 133.168C257.697 132.879 257.455 132.635 257.148 132.635L253.419 132.604C253.112 132.604 252.854 132.833 252.854 133.138C252.838 133.443 253.096 133.671 253.403 133.671Z" fill="#425045"/>
<path d="M186.883 173.668C186.883 173.668 180.796 170.664 177.082 171.259C173.369 171.838 171.899 176.154 171.899 176.154L186.883 173.668Z" fill="#E27D5B"/>
<path d="M178.358 208.16C165.151 215.876 150.2 221.152 133.215 223.592L132.133 219.459L131.794 218.179L121.606 179.173L121.267 177.892L120.379 174.492L154.915 162.689L156.287 165.358L156.9 166.532L175.839 203.296L176.453 204.485L178.358 208.16Z" fill="#A5410F"/>
<path d="M156.916 166.547L121.622 179.189L121.283 177.908L156.303 165.358L156.916 166.547Z" fill="#731F07"/>
<path d="M176.452 204.485C159.403 214.854 140.044 218.391 132.133 219.459L131.794 218.178C139.511 217.156 158.87 213.68 175.839 203.295L176.452 204.485Z" fill="#731F07"/>
<path d="M130.066 201.237C129.905 201.253 129.873 201.253 129.792 201.253H129.598H129.227C128.985 201.253 128.759 201.237 128.549 201.222C128.097 201.192 127.677 201.146 127.241 201.1C126.385 200.993 125.562 200.841 124.738 200.643C123.108 200.246 121.542 199.697 120.072 199.011C119.33 198.66 118.619 198.279 117.925 197.868C117.747 197.761 117.586 197.654 117.408 197.547L117.15 197.38L116.876 197.197C116.52 196.953 116.181 196.709 115.858 196.465C114.599 195.474 113.582 194.467 112.581 193.552C110.627 191.722 108.77 190.228 106.623 189.511C105.557 189.145 104.411 188.978 103.216 188.993C102.022 189.008 100.762 189.206 99.519 189.542C98.6632 188.612 98.2435 187.483 98.2757 186.157C99.7127 185.608 101.247 185.181 102.877 184.983C104.508 184.784 106.236 184.845 107.899 185.211C109.562 185.577 111.128 186.233 112.532 187.011C113.937 187.788 115.18 188.673 116.327 189.527C117.473 190.381 118.555 191.204 119.556 191.829C120.056 192.149 120.492 192.363 121.073 192.622C121.622 192.866 122.171 193.095 122.736 193.278C123.867 193.659 125.013 193.933 126.175 194.071C126.757 194.147 127.322 194.193 127.887 194.193C128.161 194.193 128.452 194.193 128.71 194.177C128.839 194.177 128.969 194.162 129.098 194.147L129.259 194.132L129.324 194.116C129.324 194.116 129.388 194.101 129.308 194.116L130.066 201.237Z" fill="#A5410F"/>
<path d="M98.2756 186.142C98.2756 186.142 86.9253 188.627 86.1664 197.731C85.4076 206.834 89.7346 226.856 81.5327 231.247H97.2746C97.2746 231.247 96.3382 219.475 92.4471 207.81C90.2674 201.284 91.6721 192.546 99.5189 189.542C99.5189 189.527 98.0335 188.475 98.2756 186.142Z" fill="white"/>
<path d="M175.064 200.185C172.19 201.177 169.591 201.604 169.01 201.695L168.267 197.364C172.449 196.724 178.681 194.65 179.472 192.073C179.908 190.625 178.745 185.837 175.71 179.798C172.562 173.531 169.478 170.024 168.38 169.627C166.394 168.911 160.291 172.54 156.061 176.245L152.912 173.028C153.025 172.936 155.576 170.695 158.773 168.651C163.601 165.556 167.282 164.534 170.027 165.525C174.047 166.974 178.277 174.675 179.892 177.907C181.522 181.155 185.171 189.145 183.912 193.278C182.863 196.785 178.729 198.935 175.064 200.185Z" fill="#A5410F"/>
<path d="M200.881 170.756C201.317 170.618 201.834 170.466 202.318 170.329C202.802 170.176 203.303 170.039 203.803 169.902C204.788 169.627 205.789 169.322 206.774 169.063L212.7 167.401C216.607 166.288 220.514 165.175 224.131 164.001C225.923 163.406 227.683 162.811 229.12 162.201C229.475 162.049 229.814 161.911 230.088 161.774C230.379 161.637 230.637 161.5 230.783 161.408C230.831 161.378 230.863 161.363 230.88 161.347C230.912 161.332 230.928 161.317 230.928 161.302C230.928 161.302 230.96 161.286 230.928 161.286C230.912 161.286 230.912 161.286 230.896 161.302H230.88L230.912 161.271L231.219 161.058L231.542 160.814C233.269 159.456 235.271 157.2 237.047 154.531C238.839 151.863 240.486 148.813 241.956 145.596C243.425 142.378 244.749 139.008 245.911 135.562C247.09 132.131 248.091 128.593 248.947 125.101C249.156 124.232 249.35 123.348 249.528 122.479C249.722 121.61 249.899 120.74 250.044 119.886C250.351 118.179 250.61 116.501 250.787 114.976L250.819 114.732C251.498 108.587 257.31 104.119 263.817 104.745C270 105.339 274.57 110.371 274.44 116.135C274.376 118.606 274.166 120.908 273.875 123.165C273.73 124.293 273.569 125.406 273.375 126.504C273.181 127.602 272.971 128.7 272.761 129.783C271.889 134.113 270.727 138.337 269.371 142.531C267.982 146.724 266.368 150.856 264.43 154.973C262.477 159.075 260.2 163.147 257.342 167.172C254.452 171.167 251.013 175.178 246.024 178.731L245.072 179.386L244.071 180.012L243.941 180.088L243.764 180.195L243.392 180.408C243.134 180.56 242.924 180.652 242.698 180.774C242.472 180.896 242.262 180.987 242.052 181.094C241.842 181.201 241.633 181.292 241.439 181.369C240.648 181.719 239.937 182.009 239.243 182.253C238.549 182.512 237.903 182.726 237.273 182.924C234.738 183.717 232.43 184.251 230.153 184.739C225.616 185.669 221.225 186.309 216.849 186.797L213.572 187.133C212.474 187.224 211.392 187.316 210.294 187.392C209.196 187.483 208.114 187.529 207.016 187.59C206.467 187.621 205.919 187.651 205.37 187.666L203.674 187.712C198.621 187.865 194.407 184.113 194.245 179.356C194.116 175.467 196.716 172.098 200.429 170.908L200.881 170.756Z" fill="#E8A36F"/>
<path d="M251.4 102.747L240.599 145.092C240.599 145.092 260.991 154.729 268.66 154.409C268.66 154.409 276.329 127.114 276.329 117.614C276.329 108.13 269.16 98.7825 260.975 96.9679C252.789 95.1381 251.4 102.747 251.4 102.747Z" fill="#131E07"/>
<path d="M198.653 186.858C198.653 186.858 183.234 198.889 179.456 192.225C177.874 189.45 165.619 180.575 172.013 174.781C175.952 171.228 193.664 170.847 200.558 170.618C200.574 170.649 203.755 182.741 198.653 186.858Z" fill="#E8A36F"/>
<path d="M240.196 168.728C239.986 168.728 239.776 168.636 239.663 168.453C236.644 164.306 231.38 162.217 231.316 162.201C230.976 162.064 230.815 161.714 230.96 161.393C231.106 161.073 231.477 160.921 231.816 161.058C232.042 161.149 237.499 163.315 240.728 167.767C240.938 168.042 240.858 168.438 240.567 168.621C240.454 168.697 240.325 168.728 240.196 168.728Z" fill="#E27D5B"/>
<path d="M241.503 164.291C241.39 164.291 241.293 164.26 241.18 164.215C241.132 164.199 237.079 162.11 233.043 162.873C232.688 162.934 232.349 162.72 232.268 162.385C232.203 162.049 232.43 161.729 232.785 161.653C237.289 160.799 241.616 163.04 241.81 163.132C242.133 163.3 242.246 163.681 242.068 163.971C241.955 164.169 241.745 164.291 241.503 164.291Z" fill="#E27D5B"/>
<path d="M12.9464 75.1781C12.3975 75.1781 11.9454 74.7512 11.9454 74.2327V61.9729C11.9454 61.4544 12.3975 61.0275 12.9464 61.0275C13.4954 61.0275 13.9475 61.4544 13.9475 61.9729V74.2327C13.9475 74.7512 13.4954 75.1781 12.9464 75.1781Z" fill="#C2AC96"/>
<path d="M46.5613 89.4962C46.0124 89.4962 45.5603 89.0693 45.5603 88.5508V76.291C45.5603 75.7725 46.0124 75.3456 46.5613 75.3456C47.1103 75.3456 47.5624 75.7725 47.5624 76.291V88.5508C47.5624 89.0693 47.1103 89.4962 46.5613 89.4962Z" fill="#C2AC96"/>
<path d="M66.6467 76.2H1.14397C0.595021 76.2 0.142944 75.773 0.142944 75.2546C0.142944 74.7361 0.595021 74.3091 1.14397 74.3091H66.6467C67.1956 74.3091 67.6477 74.7361 67.6477 75.2546C67.6477 75.773 67.1956 76.2 66.6467 76.2Z" fill="#C2AC96"/>
<path d="M65.7748 89.4964H18.9041C18.3552 89.4964 17.9031 89.0695 17.9031 88.551C17.9031 88.0326 18.3552 87.6056 18.9041 87.6056H65.7748C66.3237 87.6056 66.7758 88.0326 66.7758 88.551C66.7758 89.0695 66.3237 89.4964 65.7748 89.4964Z" fill="#C2AC96"/>
<path d="M324.298 201.65C323.749 201.65 323.297 201.223 323.297 200.704V188.444C323.297 187.926 323.749 187.499 324.298 187.499C324.847 187.499 325.299 187.926 325.299 188.444V200.704C325.299 201.223 324.847 201.65 324.298 201.65Z" fill="#C2AC96"/>
<path d="M357.913 215.968C357.364 215.968 356.912 215.541 356.912 215.022V202.763C356.912 202.244 357.364 201.817 357.913 201.817C358.462 201.817 358.914 202.244 358.914 202.763V215.022C358.931 215.541 358.478 215.968 357.913 215.968Z" fill="#C2AC96"/>
<path d="M377.998 202.671H312.496C311.947 202.671 311.495 202.244 311.495 201.725C311.495 201.207 311.947 200.78 312.496 200.78H377.998C378.547 200.78 378.999 201.207 378.999 201.725C379.016 202.244 378.564 202.671 377.998 202.671Z" fill="#C2AC96"/>
<path d="M377.127 215.968H330.256C329.707 215.968 329.255 215.541 329.255 215.023C329.255 214.504 329.707 214.077 330.256 214.077H377.127C377.676 214.077 378.128 214.504 378.128 215.023C378.128 215.541 377.692 215.968 377.127 215.968Z" fill="#C2AC96"/>
</svg>
