<svg width="25" height="24" viewBox="0 0 25 24" fill="none" xmlns="http://www.w3.org/2000/svg">
<path fill-rule="evenodd" clip-rule="evenodd" d="M17.8174 14.2619C17.5125 14.1141 16.0178 13.4021 15.7395 13.303C15.4612 13.2048 15.2586 13.1562 15.055 13.4517C14.8525 13.7453 14.2703 14.4097 14.0933 14.606C13.9153 14.8033 13.7383 14.8271 13.4344 14.6804C13.1306 14.5316 12.1504 14.2212 10.9892 13.2177C10.0858 12.4363 9.47501 11.4714 9.29801 11.1759C9.12101 10.8814 9.27857 10.7217 9.43101 10.575C9.56811 10.4431 9.73487 10.2309 9.88732 10.0593C10.0398 9.88676 10.0899 9.76379 10.1912 9.56646C10.2935 9.37011 10.2423 9.19855 10.1656 9.0508C10.0899 8.90304 9.48217 7.45227 9.22844 6.86224C8.98187 6.28807 8.73121 6.36641 8.545 6.3565C8.36698 6.34856 8.1644 6.34658 7.96183 6.34658C7.75925 6.34658 7.42981 6.41996 7.15153 6.71547C6.87222 7.00999 6.08749 7.72299 6.08749 9.17377C6.08749 10.6236 7.17608 12.0247 7.32852 12.2221C7.48097 12.4184 9.47194 15.3954 12.5218 16.6716C13.2482 16.975 13.814 17.1565 14.255 17.2914C14.9834 17.5165 15.6464 17.4848 16.1702 17.4084C16.7534 17.3241 17.9689 16.6954 18.2226 16.0072C18.4753 15.319 18.4753 14.729 18.3996 14.606C18.3239 14.483 18.1213 14.4097 17.8164 14.2619H17.8174ZM12.2701 21.6031H12.266C10.4546 21.6034 8.67634 21.1314 7.11776 20.2366L6.74945 20.0244L2.92097 20.9982L3.94306 17.3806L3.70263 17.0098C2.68989 15.4473 2.15394 13.6389 2.15671 11.7937C2.15876 6.38922 6.69522 1.99226 12.2742 1.99226C14.9752 1.99226 17.5146 3.01365 19.4237 4.86605C20.3654 5.77497 21.1117 6.85586 21.6196 8.04616C22.1275 9.23647 22.3868 10.5126 22.3825 11.8006C22.3805 17.2051 17.844 21.6031 12.2701 21.6031ZM20.8765 3.4589C19.7493 2.35909 18.408 1.48705 16.9305 0.893316C15.453 0.299581 13.8686 -0.0040422 12.2691 4.06353e-05C5.56366 4.06353e-05 0.104357 5.29048 0.102311 11.7927C0.101288 13.8712 0.660928 15.9001 1.72598 17.688L0 23.7996L6.44967 22.1594C8.23385 23.1016 10.2332 23.5952 12.265 23.5953H12.2701C18.9756 23.5953 24.4349 18.3048 24.4369 11.8016C24.4419 10.252 24.1298 8.71671 23.5186 7.28471C22.9075 5.85271 22.0095 4.55236 20.8765 3.4589Z" fill="#D5963D"/>
</svg>
