<svg width="65" height="75" viewBox="0 0 65 75" fill="none" xmlns="http://www.w3.org/2000/svg">
<path fill-rule="evenodd" clip-rule="evenodd" d="M49.4335 61.6923C56.3691 54.1718 61.3986 44.3365 62.6217 36.4262C65.0276 20.8657 53.6403 5.99521 36.9109 3.40854C20.1815 0.821876 4.83472 11.5588 2.4288 27.1193C1.20572 35.0296 3.02998 45.9246 7.37041 55.1886C11.7416 64.5183 18.3349 71.5376 26.1891 72.752C34.0433 73.9664 42.4486 69.2662 49.4335 61.6923ZM25.8749 74.7841C43.619 77.5276 62.0582 53.5278 64.6538 36.7404C67.2494 19.953 54.9692 4.12001 37.2251 1.37645C19.481 -1.36711 2.99234 10.0177 0.396702 26.8051C-2.19893 43.5925 8.13081 72.0405 25.8749 74.7841ZM26.134 36.9148C27.0219 45.0736 23.6382 52.1342 18.5764 52.6851C13.5146 53.2359 8.69141 47.0684 7.80354 38.9095C6.91567 30.7507 10.2993 23.6901 15.3611 23.1392C20.423 22.5884 25.2461 28.7559 26.134 36.9148ZM37.2288 55.5691C41.8879 57.623 48.3485 53.2002 51.659 45.6905C54.9695 38.1807 53.8763 30.4279 49.2172 28.3741C44.5581 26.3202 38.0975 30.743 34.787 38.2527C31.4765 45.7625 32.5697 53.5153 37.2288 55.5691Z" fill="#0C313A"/>
</svg>
