<svg width="200" height="80" viewBox="0 0 410 409" fill="none" xmlns="http://www.w3.org/2000/svg">
<path d="M34.5833 171.013C34.5833 123.612 72.9952 85.2085 120.388 85.2085H187.362C234.763 85.2085 273.167 123.62 273.167 171.013C273.167 218.389 234.755 256.81 187.362 256.81H136.833V298.229C136.833 298.229 34.5833 277.524 34.5833 171.013Z" fill="#E2D6F5"/>
<path d="M209.064 271.533C221.835 283.824 238.878 290.679 256.602 290.654H281.688V323.792C281.688 323.792 375.417 307.227 375.417 222.019C375.417 203.815 368.186 186.356 355.314 173.483C342.443 160.61 324.985 153.377 306.781 153.375H287.95C289.424 158.965 290.208 164.836 290.208 170.894C290.208 220.264 255.443 261.521 209.064 271.533Z" fill="#E2D6F5"/>
</svg>
