<svg width="269" height="67" viewBox="0 0 269 67" fill="none" xmlns="http://www.w3.org/2000/svg">
<path fill-rule="evenodd" clip-rule="evenodd" d="M33.5385 44.5287C36.9111 40.8716 39.3569 36.089 39.9516 32.2423C41.1216 24.6756 35.5841 17.4444 27.449 16.1865C19.3138 14.9287 11.851 20.1498 10.6811 27.7166C10.0863 31.5632 10.9734 36.8612 13.0841 41.3661C15.2097 45.903 18.4159 49.3163 22.2352 49.9068C26.0546 50.4973 30.1419 48.2117 33.5385 44.5287ZM22.0824 50.895C30.711 52.2291 39.6776 40.5585 40.9398 32.3951C42.202 24.2318 36.2304 16.5325 27.6018 15.1984C18.9732 13.8642 10.9551 19.4004 9.69291 27.5638C8.4307 35.7271 13.4538 49.5608 22.0824 50.895ZM22.2085 32.4799C22.6402 36.4474 20.9948 39.8808 18.5333 40.1487C16.0719 40.4165 13.7265 37.4174 13.2947 33.4499C12.863 29.4825 14.5084 26.049 16.9698 25.7812C19.4313 25.5133 21.7767 28.5124 22.2085 32.4799ZM27.6036 41.5511C29.8692 42.5499 33.0109 40.3991 34.6207 36.7473C36.2305 33.0955 35.6989 29.3255 33.4333 28.3267C31.1677 27.328 28.026 29.4787 26.4162 33.1305C24.8064 36.7823 25.338 40.5524 27.6036 41.5511Z" fill="white"/>
<path d="M55.1136 45V27.5455H61.2159C62.4318 27.5455 63.4347 27.7557 64.2244 28.1761C65.0142 28.5909 65.6023 29.1506 65.9886 29.8551C66.375 30.554 66.5682 31.3295 66.5682 32.1818C66.5682 32.9318 66.4347 33.5511 66.1676 34.0398C65.9063 34.5284 65.5597 34.9148 65.1278 35.1989C64.7017 35.483 64.2386 35.6932 63.7386 35.8295V36C64.2727 36.0341 64.8097 36.2216 65.3494 36.5625C65.8892 36.9034 66.3409 37.392 66.7045 38.0284C67.0682 38.6648 67.25 39.4432 67.25 40.3636C67.25 41.2386 67.0511 42.0256 66.6534 42.7244C66.2557 43.4233 65.6278 43.9773 64.7699 44.3864C63.9119 44.7955 62.7955 45 61.4205 45H55.1136ZM57.2273 43.125H61.4205C62.8011 43.125 63.7813 42.858 64.3608 42.3239C64.946 41.7841 65.2386 41.1307 65.2386 40.3636C65.2386 39.7727 65.0881 39.2273 64.7869 38.7273C64.4858 38.2216 64.0568 37.8182 63.5 37.517C62.9432 37.2102 62.2841 37.0568 61.5227 37.0568H57.2273V43.125ZM57.2273 35.2159H61.1477C61.7841 35.2159 62.358 35.0909 62.8693 34.8409C63.3864 34.5909 63.7955 34.2386 64.0966 33.7841C64.4034 33.3295 64.5568 32.7955 64.5568 32.1818C64.5568 31.4148 64.2898 30.7642 63.7557 30.2301C63.2216 29.6903 62.375 29.4205 61.2159 29.4205H57.2273V35.2159ZM70.4503 45V31.9091H72.4616V45H70.4503ZM71.473 29.7273C71.081 29.7273 70.7429 29.5938 70.4588 29.3267C70.1804 29.0597 70.0412 28.7386 70.0412 28.3636C70.0412 27.9886 70.1804 27.6676 70.4588 27.4006C70.7429 27.1335 71.081 27 71.473 27C71.8651 27 72.2003 27.1335 72.4787 27.4006C72.7628 27.6676 72.9048 27.9886 72.9048 28.3636C72.9048 28.7386 72.7628 29.0597 72.4787 29.3267C72.2003 29.5938 71.8651 29.7273 71.473 29.7273ZM78.157 27.5455V45H76.1456V27.5455H78.157ZM90.0909 39.6477V31.9091H92.1023V45H90.0909V42.7841H89.9545C89.6477 43.4489 89.1705 44.0142 88.5227 44.4801C87.875 44.9403 87.0568 45.1705 86.0682 45.1705C85.25 45.1705 84.5227 44.9915 83.8864 44.6335C83.25 44.2699 82.75 43.7244 82.3864 42.9972C82.0227 42.2642 81.8409 41.3409 81.8409 40.2273V31.9091H83.8523V40.0909C83.8523 41.0455 84.1193 41.8068 84.6534 42.375C85.1932 42.9432 85.8807 43.2273 86.7159 43.2273C87.2159 43.2273 87.7244 43.0994 88.2415 42.8438C88.7642 42.5881 89.2017 42.196 89.554 41.6676C89.9119 41.1392 90.0909 40.4659 90.0909 39.6477ZM102.809 45V27.5455H108.707C110.076 27.5455 111.195 27.7926 112.065 28.2869C112.94 28.7756 113.587 29.4375 114.008 30.2727C114.428 31.108 114.638 32.0398 114.638 33.0682C114.638 34.0966 114.428 35.0312 114.008 35.8722C113.593 36.7131 112.951 37.3835 112.082 37.8835C111.212 38.3778 110.099 38.625 108.741 38.625H104.513V36.75H108.673C109.61 36.75 110.363 36.5881 110.931 36.2642C111.499 35.9403 111.911 35.5028 112.167 34.9517C112.428 34.3949 112.559 33.767 112.559 33.0682C112.559 32.3693 112.428 31.7443 112.167 31.1932C111.911 30.642 111.496 30.2102 110.923 29.8977C110.349 29.5795 109.587 29.4205 108.638 29.4205H104.923V45H102.809ZM117.771 45V31.9091H119.714V33.8864H119.85C120.089 33.2386 120.521 32.7131 121.146 32.3097C121.771 31.9062 122.475 31.7045 123.259 31.7045C123.407 31.7045 123.592 31.7074 123.813 31.7131C124.035 31.7187 124.202 31.7273 124.316 31.7386V33.7841C124.248 33.767 124.092 33.7415 123.847 33.7074C123.609 33.6676 123.356 33.6477 123.089 33.6477C122.452 33.6477 121.884 33.7812 121.384 34.0483C120.89 34.3097 120.498 34.6733 120.208 35.1392C119.924 35.5994 119.782 36.125 119.782 36.7159V45H117.771ZM131.62 45.2727C130.438 45.2727 129.401 44.9915 128.509 44.429C127.623 43.8665 126.93 43.0795 126.43 42.0682C125.935 41.0568 125.688 39.875 125.688 38.5227C125.688 37.1591 125.935 35.9687 126.43 34.9517C126.93 33.9347 127.623 33.1449 128.509 32.5824C129.401 32.0199 130.438 31.7386 131.62 31.7386C132.802 31.7386 133.836 32.0199 134.722 32.5824C135.614 33.1449 136.308 33.9347 136.802 34.9517C137.302 35.9687 137.552 37.1591 137.552 38.5227C137.552 39.875 137.302 41.0568 136.802 42.0682C136.308 43.0795 135.614 43.8665 134.722 44.429C133.836 44.9915 132.802 45.2727 131.62 45.2727ZM131.62 43.4659C132.518 43.4659 133.256 43.2358 133.836 42.7756C134.415 42.3153 134.844 41.7102 135.123 40.9602C135.401 40.2102 135.54 39.3977 135.54 38.5227C135.54 37.6477 135.401 36.8324 135.123 36.0767C134.844 35.321 134.415 34.7102 133.836 34.2443C133.256 33.7784 132.518 33.5455 131.62 33.5455C130.722 33.5455 129.984 33.7784 129.404 34.2443C128.825 34.7102 128.396 35.321 128.117 36.0767C127.839 36.8324 127.7 37.6477 127.7 38.5227C127.7 39.3977 127.839 40.2102 128.117 40.9602C128.396 41.7102 128.825 42.3153 129.404 42.7756C129.984 43.2358 130.722 43.4659 131.62 43.4659ZM140.622 31.9091H142.634V45.9545C142.634 46.7614 142.494 47.4602 142.216 48.0511C141.943 48.642 141.528 49.0994 140.972 49.4233C140.42 49.7472 139.724 49.9091 138.884 49.9091C138.815 49.9091 138.747 49.9091 138.679 49.9091C138.611 49.9091 138.543 49.9091 138.474 49.9091V48.0341C138.543 48.0341 138.605 48.0341 138.662 48.0341C138.719 48.0341 138.781 48.0341 138.849 48.0341C139.463 48.0341 139.912 47.8523 140.196 47.4886C140.48 47.1307 140.622 46.6193 140.622 45.9545V31.9091ZM141.611 29.7273C141.219 29.7273 140.881 29.5938 140.597 29.3267C140.318 29.0597 140.179 28.7386 140.179 28.3636C140.179 27.9886 140.318 27.6676 140.597 27.4006C140.881 27.1335 141.219 27 141.611 27C142.003 27 142.338 27.1335 142.616 27.4006C142.901 27.6676 143.043 27.9886 143.043 28.3636C143.043 28.7386 142.901 29.0597 142.616 29.3267C142.338 29.5938 142.003 29.7273 141.611 29.7273ZM151.806 45.2727C150.545 45.2727 149.457 44.9943 148.542 44.4375C147.633 43.875 146.931 43.0909 146.437 42.0852C145.948 41.0739 145.704 39.8977 145.704 38.5568C145.704 37.2159 145.948 36.0341 146.437 35.0114C146.931 33.983 147.619 33.1818 148.499 32.608C149.386 32.0284 150.42 31.7386 151.602 31.7386C152.283 31.7386 152.957 31.8523 153.621 32.0795C154.286 32.3068 154.891 32.6761 155.437 33.1875C155.982 33.6932 156.417 34.3636 156.741 35.1989C157.065 36.0341 157.227 37.0625 157.227 38.2841V39.1364H147.136V37.3977H155.181C155.181 36.6591 155.033 36 154.738 35.4205C154.448 34.8409 154.033 34.3835 153.494 34.0483C152.96 33.7131 152.329 33.5455 151.602 33.5455C150.8 33.5455 150.107 33.7443 149.522 34.142C148.942 34.5341 148.496 35.0455 148.184 35.6761C147.871 36.3068 147.715 36.983 147.715 37.7045V38.8636C147.715 39.8523 147.886 40.6903 148.227 41.3778C148.573 42.0597 149.053 42.5795 149.667 42.9375C150.281 43.2898 150.994 43.4659 151.806 43.4659C152.335 43.4659 152.812 43.392 153.238 43.2443C153.67 43.0909 154.042 42.8636 154.354 42.5625C154.667 42.2557 154.908 41.875 155.079 41.4205L157.022 41.9659C156.817 42.625 156.474 43.2045 155.991 43.7045C155.508 44.1989 154.911 44.5852 154.201 44.8636C153.491 45.1364 152.692 45.2727 151.806 45.2727ZM165.604 45.2727C164.377 45.2727 163.32 44.983 162.434 44.4034C161.548 43.8239 160.866 43.0256 160.388 42.0085C159.911 40.9915 159.673 39.8295 159.673 38.5227C159.673 37.1932 159.917 36.0199 160.406 35.0028C160.9 33.9801 161.587 33.1818 162.468 32.608C163.354 32.0284 164.388 31.7386 165.57 31.7386C166.491 31.7386 167.32 31.9091 168.059 32.25C168.798 32.5909 169.403 33.0682 169.874 33.6818C170.346 34.2955 170.638 35.0114 170.752 35.8295H168.741C168.587 35.233 168.246 34.7045 167.718 34.2443C167.195 33.7784 166.491 33.5455 165.604 33.5455C164.82 33.5455 164.133 33.75 163.542 34.1591C162.957 34.5625 162.499 35.1335 162.17 35.8722C161.846 36.6051 161.684 37.4659 161.684 38.4545C161.684 39.4659 161.843 40.3466 162.161 41.0966C162.485 41.8466 162.94 42.429 163.525 42.8438C164.116 43.2585 164.809 43.4659 165.604 43.4659C166.127 43.4659 166.602 43.375 167.028 43.1932C167.454 43.0114 167.815 42.75 168.11 42.4091C168.406 42.0682 168.616 41.6591 168.741 41.1818H170.752C170.638 41.9545 170.357 42.6506 169.908 43.2699C169.465 43.8835 168.877 44.3722 168.144 44.7358C167.417 45.0938 166.57 45.2727 165.604 45.2727ZM179.386 31.9091V33.6136H172.602V31.9091H179.386ZM174.579 28.7727H176.59V41.25C176.59 41.8182 176.673 42.2443 176.837 42.5284C177.008 42.8068 177.224 42.9943 177.485 43.0909C177.752 43.1818 178.033 43.2273 178.329 43.2273C178.55 43.2273 178.732 43.2159 178.874 43.1932C179.016 43.1648 179.13 43.142 179.215 43.125L179.624 44.9318C179.488 44.983 179.298 45.0341 179.053 45.0852C178.809 45.142 178.499 45.1705 178.124 45.1705C177.556 45.1705 176.999 45.0483 176.454 44.804C175.914 44.5597 175.465 44.1875 175.107 43.6875C174.755 43.1875 174.579 42.5568 174.579 41.7955V28.7727Z" fill="white"/>
</svg>
