<svg width="24" height="24" viewBox="0 0 24 24" fill="none" xmlns="http://www.w3.org/2000/svg">
<path d="M4.3669 3.09745L20.4568 11.1038C20.6194 11.1846 20.7567 11.3116 20.8528 11.4702C20.949 11.6288 21 11.8125 21 12C21 12.1875 20.949 12.3712 20.8528 12.5298C20.7567 12.6884 20.6194 12.8154 20.4568 12.8962L4.3669 20.9026C4.20195 20.9848 4.01778 21.0159 3.8363 20.9923C3.65482 20.9688 3.48367 20.8915 3.34321 20.7696C3.20275 20.6477 3.0989 20.4864 3.04401 20.3049C2.98912 20.1234 2.9855 19.9293 3.03358 19.7457L5.06486 12L3.03358 4.25426C2.9855 4.07067 2.98912 3.87658 3.04401 3.69507C3.0989 3.51355 3.20275 3.35227 3.34321 3.23041C3.48367 3.10854 3.65482 3.03122 3.8363 3.00765C4.01778 2.98408 4.20195 3.01525 4.3669 3.09745ZM4.24853 4.35993L6.09883 11.4208L14.4546 11.4216C14.5931 11.4216 14.7269 11.4739 14.8312 11.5687C14.9355 11.6635 15.0033 11.7944 15.0219 11.9372L15.0273 12.0175C15.0273 12.1615 14.9772 12.3006 14.8862 12.4091C14.7952 12.5176 14.6696 12.5882 14.5325 12.6078L14.4546 12.6134H6.08967L4.2493 19.6401L19.603 12L4.24853 4.35993Z" fill="#EF4910"/>
</svg>
