<svg width="48" height="49" viewBox="0 0 48 49" fill="none" xmlns="http://www.w3.org/2000/svg">
<path fill-rule="evenodd" clip-rule="evenodd" d="M23.25 23.6667C17.8652 23.6667 13.5 28.0319 13.5 33.4167V36.9167H15.5V33.4167C15.5 29.1365 18.9698 25.6667 23.25 25.6667C27.5302 25.6667 31 29.1365 31 33.4167V36.9167H33V33.4167C33 28.0319 28.6348 23.6667 23.25 23.6667Z" fill="#7839cc"/>
<path fill-rule="evenodd" clip-rule="evenodd" d="M37.25 23.3166C33.7982 23.3166 31 26.1148 31 29.5666V33.4169H33V29.5666C33 27.2194 34.9028 25.3166 37.25 25.3166C39.5972 25.3166 41.5 27.2194 41.5 29.5666V33.4169H43.5V29.5666C43.5 26.1148 40.7018 23.3166 37.25 23.3166Z" fill="#7839cc"/>
<path fill-rule="evenodd" clip-rule="evenodd" d="M9.25 23.3166C5.79822 23.3166 3 26.1148 3 29.5666V33.4169H5V29.5666C5 27.2194 6.90279 25.3166 9.25 25.3166C11.5972 25.3166 13.5 27.2194 13.5 29.5666V33.4169H15.5V29.5666C15.5 26.1148 12.7018 23.3166 9.25 23.3166Z" fill="#7839cc"/>
<circle cx="37.0747" cy="18.2917" r="4.375" stroke="#7839cc" stroke-width="2"/>
<circle cx="23.25" cy="15.6667" r="7" stroke="#7839cc" stroke-width="2"/>
<circle cx="9.07471" cy="18.2917" r="4.375" stroke="#7839cc" stroke-width="2"/>
</svg>
