<svg width="58" height="65" viewBox="0 0 58 65" fill="none" xmlns="http://www.w3.org/2000/svg">
<path fill-rule="evenodd" clip-rule="evenodd" d="M50.0034 31.5293L49.9925 31.5429L29.1799 57.7719L28.9465 57.5866C26.1057 58.9474 20.0741 56.8822 14.4314 52.4047C8.90943 48.023 5.55248 42.7536 6.04832 39.6476C6.20205 39.2428 6.3597 38.8335 6.52102 38.4206L6.60556 38.314L6.62427 38.2902L6.64326 38.2665L24.3117 16C30.7387 23.6006 40.4246 24.7792 44.7969 23.947C45.9115 23.7349 47.2007 23.7534 48.44 23.9638C50.5442 27.0707 51.2536 29.9107 50.0249 31.5018L51.8027 29.2614L51.8028 29.2615L50.0142 31.5156L50.0034 31.5293ZM49.7207 31.8331C49.8141 31.7473 49.9011 31.6551 49.9815 31.5565L49.746 31.8532L49.7207 31.8331Z" fill="url(#paint0_linear_2_404)"/>
<path fill-rule="evenodd" clip-rule="evenodd" d="M28.8316 7.00002L28.8316 7.00001L27.392 8.81423L27.3979 8.80684L28.8316 7.00002ZM27.388 8.81926L27.3821 8.82668L26.5251 9.90677L26.7867 10.1144C26.0246 13.5638 29.8175 19.6248 36.1457 24.6462C42.4739 29.6677 49.2384 31.9838 52.4243 30.4578L52.686 30.6654L29.6208 59.7331L29.3591 59.5255C26.1732 61.0515 19.4088 58.7353 13.0806 53.7139C6.75233 48.6925 2.95947 42.6315 3.72153 39.1821L3.45989 38.9745L4.31859 37.8923L4.32482 37.8844L4.33107 37.8766L27.388 8.81926Z" fill="white" fill-opacity="0.2"/>
<ellipse cx="39.8934" cy="19.8295" rx="16.6982" ry="6.95757" transform="rotate(38.4319 39.8934 19.8295)" fill="white" fill-opacity="0.2"/>
<path fill-rule="evenodd" clip-rule="evenodd" d="M45.5327 2.16274L45.5327 2.16273L44.959 2.88582L44.9606 2.88375L45.5327 2.16274ZM44.9532 2.89302L44.9516 2.8951L44.6101 3.32544L44.7148 3.40847C44.41 4.78824 45.9271 7.21264 48.4584 9.22121C50.9897 11.2298 53.6954 12.1562 54.9698 11.5458L55.0745 11.6289L45.8484 23.256L45.7437 23.1729C44.4694 23.7833 41.7636 22.8569 39.2323 20.8483C36.701 18.8397 35.1839 16.4153 35.4887 15.0355L35.3841 14.9525L35.726 14.5216L35.73 14.5165L35.7341 14.5114L44.9532 2.89302Z" fill="white" fill-opacity="0.2"/>
<ellipse cx="49.9574" cy="7.3318" rx="6.67926" ry="2.78303" transform="rotate(38.4319 49.9574 7.3318)" fill="white" fill-opacity="0.2"/>
<path fill-rule="evenodd" clip-rule="evenodd" d="M38.7823 20.8703C41.672 23.1633 44.789 24.046 45.7444 22.842C46.6998 21.638 45.1318 18.8031 42.2421 16.5102C39.3525 14.2172 36.2354 13.3345 35.28 14.5385C34.3247 15.7426 35.8927 18.5774 38.7823 20.8703ZM39.502 20.0216C41.6845 21.7535 43.9028 22.5916 44.4566 21.8937C45.0104 21.1957 43.69 19.226 41.5075 17.4942C39.325 15.7624 37.1068 14.9242 36.553 15.6222C35.9992 16.3201 37.3195 18.2898 39.502 20.0216Z" fill="white" fill-opacity="0.2"/>
<path fill-rule="evenodd" clip-rule="evenodd" d="M47.9424 1.74078L41.2949 10.1182L41.0359 10.4446L41.1142 10.5068C40.8861 11.5397 42.0218 13.3546 43.9167 14.8581C45.8115 16.3617 47.837 17.0553 48.791 16.5983L48.8694 16.6605L49.1284 16.3341L55.7759 7.95663L55.6975 7.89446C54.7435 8.35141 52.718 7.65787 50.8231 6.15429C48.9283 4.6507 47.7925 2.83583 48.0207 1.80295L47.9424 1.74078Z" fill="#DA7600"/>
<ellipse cx="51.9973" cy="4.67462" rx="5" ry="2" transform="rotate(38.4319 51.9973 4.67462)" fill="#AA5C00"/>
<circle cx="24.6068" cy="28.6003" r="1.75535" transform="rotate(38.4319 24.6068 28.6003)" fill="white" fill-opacity="0.5" stroke="white" stroke-width="0.2"/>
<circle cx="26.5854" cy="34.3151" r="1.29151" transform="rotate(38.4319 26.5854 34.3151)" fill="white" fill-opacity="0.5" stroke="white" stroke-width="0.2"/>
<circle cx="26.126" cy="20.955" r="1.29151" transform="rotate(38.4319 26.126 20.955)" fill="white" fill-opacity="0.5" stroke="white" stroke-width="0.2"/>
<circle cx="34.0185" cy="19.0219" r="0.627392" transform="rotate(38.4319 34.0185 19.0219)" fill="white" fill-opacity="0.5" stroke="white" stroke-width="0.2"/>
<circle cx="32.4269" cy="27.6999" r="3.6107" transform="rotate(38.4319 32.4269 27.6999)" fill="white" fill-opacity="0.5" stroke="white" stroke-width="0.2"/>
<circle cx="33.6068" cy="22.6066" r="1.75535" transform="rotate(38.4319 33.6068 22.6066)" fill="white" fill-opacity="0.5" stroke="white" stroke-width="0.2"/>
<circle cx="33.5317" cy="28.955" r="1.29151" transform="rotate(38.4319 33.5317 28.955)" fill="white" fill-opacity="0.5" stroke="white" stroke-width="0.2"/>
<circle cx="33.5317" cy="15.955" r="1.29151" transform="rotate(38.4319 33.5317 15.955)" fill="white" fill-opacity="0.5" stroke="white" stroke-width="0.2"/>
<circle cx="41.4243" cy="15.0219" r="0.627392" transform="rotate(38.4319 41.4243 15.0219)" fill="white" fill-opacity="0.5" stroke="white" stroke-width="0.2"/>
<circle cx="41.9069" cy="23.2133" r="3.6107" transform="rotate(38.4319 41.9069 23.2133)" fill="white" fill-opacity="0.5" stroke="white" stroke-width="0.2"/>
<defs>
<linearGradient id="paint0_linear_2_404" x1="14" y1="50" x2="36.9737" y2="22.5594" gradientUnits="userSpaceOnUse">
<stop offset="0.180744" stop-color="#D45AFF"/>
<stop offset="1" stop-color="#5EFFF5"/>
</linearGradient>
</defs>
</svg>
